<svg width="64" height="64" viewBox="0 0 64 64" fill="none" xmlns="http://www.w3.org/2000/svg">
<g id="vuesax/linear/profile">
<g id="vuesax/linear/profile_2">
<g id="profile">
<path id="Vector" d="M32.428 28.9866C32.1614 28.9599 31.8414 28.9599 31.548 28.9866C25.2014 28.7733 20.1614 23.5733 20.1614 17.1733C20.1614 10.6399 25.4414 5.33325 32.0014 5.33325C38.5347 5.33325 43.8414 10.6399 43.8414 17.1733C43.8147 23.5733 38.7747 28.7733 32.428 28.9866Z" stroke="#02120D" stroke-width="4" stroke-linecap="round" stroke-linejoin="round"/>
<path id="Vector_2" d="M19.0951 38.8267C12.6418 43.1467 12.6418 50.1867 19.0951 54.4801C26.4285 59.3867 38.4551 59.3867 45.7885 54.4801C52.2418 50.1601 52.2418 43.1201 45.7885 38.8267C38.4818 33.9467 26.4551 33.9467 19.0951 38.8267Z" stroke="#02120D" stroke-width="4" stroke-linecap="round" stroke-linejoin="round"/>
</g>
</g>
</g>
</svg>
