<svg width="32" height="32" viewBox="0 0 32 32" fill="none" xmlns="http://www.w3.org/2000/svg">
<path d="M16.0344 30.205C23.852 30.205 30.1894 23.8699 30.1894 16.055C30.1894 8.2402 23.852 1.90503 16.0344 1.90503C8.2168 1.90503 1.87939 8.2402 1.87939 16.055C1.87939 23.8699 8.2168 30.205 16.0344 30.205Z" fill="white"/>
<path d="M16.0344 21.3281C18.9481 21.3281 21.31 18.967 21.31 16.0544C21.31 13.1418 18.9481 10.7806 16.0344 10.7806C13.1208 10.7806 10.7588 13.1418 10.7588 16.0544C10.7588 18.967 13.1208 21.3281 16.0344 21.3281Z" fill="#2A6699"/>
<path d="M28.9024 9.62504C25.3599 2.50004 16.7099 -0.407459 9.58176 3.13379C7.35953 4.23781 5.46008 5.89701 4.06738 7.95067L9.85801 17.9844C9.55768 17.0282 9.48495 16.015 9.64563 15.0257C9.8063 14.0364 10.1959 13.0984 10.7834 12.2863C11.3709 11.4743 12.1401 10.8108 13.0295 10.3488C13.9189 9.88671 14.904 9.63888 15.9061 9.62504" fill="#E34441"/>
<path d="M4.06744 7.95068C-0.364434 14.5626 1.40182 23.5094 8.01369 27.9376C10.0587 29.309 12.4208 30.1337 14.8749 30.3332L20.9231 20.0426C20.1915 20.9276 19.2365 21.6008 18.1571 21.9924C17.0777 22.3841 15.9132 22.4799 14.7843 22.2699C13.6554 22.06 12.6032 21.5519 11.7368 20.7984C10.8704 20.0449 10.2213 19.0733 9.85682 17.9844" fill="#4FB552"/>
<path d="M14.875 30.3331C22.8125 30.9331 29.7325 24.9875 30.3325 17.0531C30.5262 14.4939 30.0325 11.9294 28.9025 9.625H15.9062C17.1122 9.6301 18.2924 9.97416 19.3121 10.6179C20.3318 11.2616 21.15 12.1791 21.6733 13.2656C22.1966 14.3521 22.4038 15.5638 22.2714 16.7624C22.139 17.9611 21.6722 19.0983 20.9244 20.0444" fill="#F9D045"/>
</svg>
