<svg width="62" height="49" viewBox="0 0 62 49" fill="none" xmlns="http://www.w3.org/2000/svg">
<rect width="62" height="38" rx="15" fill="#282833"/>
<path d="M11.022 24V14.48H14.284C17.266 14.48 19.114 16.272 19.114 19.254C19.114 22.236 17.266 24 14.284 24H11.022ZM14.284 22.726C16.314 22.726 17.518 21.438 17.518 19.254C17.518 17.042 16.314 15.754 14.284 15.754H12.59V22.726H14.284ZM27.3484 21.564C26.9424 23.3 25.6544 24.182 23.9044 24.182C21.7064 24.182 20.3624 22.712 20.3624 20.276C20.3624 17.742 21.7064 16.342 23.8344 16.342C25.9904 16.342 27.2924 17.798 27.2924 20.192V20.556H21.8884C21.9724 22.082 22.6864 22.936 23.9044 22.936C24.8564 22.936 25.5284 22.488 25.7804 21.564H27.3484ZM23.8344 17.588C22.7564 17.588 22.1124 18.274 21.9304 19.534H25.7384C25.5564 18.274 24.8984 17.588 23.8344 17.588ZM28.7928 24V13.92H30.2908V24H28.7928ZM38.7234 21.564C38.3174 23.3 37.0294 24.182 35.2794 24.182C33.0814 24.182 31.7374 22.712 31.7374 20.276C31.7374 17.742 33.0814 16.342 35.2094 16.342C37.3654 16.342 38.6674 17.798 38.6674 20.192V20.556H33.2634C33.3474 22.082 34.0614 22.936 35.2794 22.936C36.2314 22.936 36.9034 22.488 37.1554 21.564H38.7234ZM35.2094 17.588C34.1314 17.588 33.4874 18.274 33.3054 19.534H37.1134C36.9314 18.274 36.2734 17.588 35.2094 17.588ZM40.3638 21.774V17.7H39.3558V16.538H40.3638V14.816H41.8618V16.538H43.4718V17.7H41.8618V21.69C41.8618 22.544 42.0998 22.95 43.1498 22.95H43.4438V24.042C43.2758 24.126 42.9258 24.182 42.5058 24.182C41.0498 24.182 40.3638 23.384 40.3638 21.774ZM51.2195 21.564C50.8135 23.3 49.5255 24.182 47.7755 24.182C45.5775 24.182 44.2335 22.712 44.2335 20.276C44.2335 17.742 45.5775 16.342 47.7055 16.342C49.8615 16.342 51.1635 17.798 51.1635 20.192V20.556H45.7595C45.8435 22.082 46.5575 22.936 47.7755 22.936C48.7275 22.936 49.3995 22.488 49.6515 21.564H51.2195ZM47.7055 17.588C46.6275 17.588 45.9835 18.274 45.8015 19.534H49.6095C49.4275 18.274 48.7695 17.588 47.7055 17.588Z" fill="white"/>
<rect x="31" y="27" width="15.4698" height="15.4698" transform="rotate(45 31 27)" fill="#282833"/>
</svg>
