<svg width="87" height="40" viewBox="0 0 87 40" fill="none" xmlns="http://www.w3.org/2000/svg">
<rect x="0.5" y="0.5" width="86" height="39" rx="14.5" fill="#FEE4E2"/>
<rect x="0.5" y="0.5" width="86" height="39" rx="14.5" stroke="#FECDCA"/>
<path d="M20.8086 26V15.12H24.5366C27.9446 15.12 30.0566 17.168 30.0566 20.576C30.0566 23.984 27.9446 26 24.5366 26H20.8086ZM24.5366 24.544C26.8566 24.544 28.2326 23.072 28.2326 20.576C28.2326 18.048 26.8566 16.576 24.5366 16.576H22.6006V24.544H24.5366ZM39.4674 23.216C39.0034 25.2 37.5314 26.208 35.5314 26.208C33.0194 26.208 31.4834 24.528 31.4834 21.744C31.4834 18.848 33.0194 17.248 35.4514 17.248C37.9154 17.248 39.4034 18.912 39.4034 21.648V22.064H33.2274C33.3234 23.808 34.1394 24.784 35.5314 24.784C36.6194 24.784 37.3874 24.272 37.6754 23.216H39.4674ZM35.4514 18.672C34.2194 18.672 33.4834 19.456 33.2754 20.896H37.6274C37.4194 19.456 36.6674 18.672 35.4514 18.672ZM41.1181 26V14.48H42.8301V26H41.1181ZM52.4674 23.216C52.0034 25.2 50.5314 26.208 48.5314 26.208C46.0194 26.208 44.4834 24.528 44.4834 21.744C44.4834 18.848 46.0194 17.248 48.4514 17.248C50.9154 17.248 52.4034 18.912 52.4034 21.648V22.064H46.2274C46.3234 23.808 47.1394 24.784 48.5314 24.784C49.6194 24.784 50.3874 24.272 50.6754 23.216H52.4674ZM48.4514 18.672C47.2194 18.672 46.4834 19.456 46.2754 20.896H50.6274C50.4194 19.456 49.6674 18.672 48.4514 18.672ZM54.3421 23.456V18.8H53.1901V17.472H54.3421V15.504H56.0541V17.472H57.8941V18.8H56.0541V23.36C56.0541 24.336 56.3261 24.8 57.5261 24.8H57.8621V26.048C57.6701 26.144 57.2701 26.208 56.7901 26.208C55.1261 26.208 54.3421 25.296 54.3421 23.456ZM66.7486 23.216C66.2846 25.2 64.8126 26.208 62.8126 26.208C60.3006 26.208 58.7646 24.528 58.7646 21.744C58.7646 18.848 60.3006 17.248 62.7326 17.248C65.1966 17.248 66.6846 18.912 66.6846 21.648V22.064H60.5086C60.6046 23.808 61.4206 24.784 62.8126 24.784C63.9006 24.784 64.6686 24.272 64.9566 23.216H66.7486ZM62.7326 18.672C61.5006 18.672 60.7646 19.456 60.5566 20.896H64.9086C64.7006 19.456 63.9486 18.672 62.7326 18.672Z" fill="#F97066"/>
</svg>
