<svg width="86" height="49" viewBox="0 0 86 49" fill="none" xmlns="http://www.w3.org/2000/svg">
<rect width="86" height="38" rx="15" fill="#282833"/>
<path d="M11.022 24V14.48H14.284C17.266 14.48 19.114 16.272 19.114 19.254C19.114 22.236 17.266 24 14.284 24H11.022ZM14.284 22.726C16.314 22.726 17.518 21.438 17.518 19.254C17.518 17.042 16.314 15.754 14.284 15.754H12.59V22.726H14.284ZM23.8484 24.182C21.6784 24.182 20.3624 22.712 20.3624 20.276C20.3624 17.742 21.7204 16.342 23.8484 16.342C26.0184 16.342 27.3344 17.84 27.3344 20.276C27.3344 22.796 25.9764 24.182 23.8484 24.182ZM23.8484 22.922C25.1224 22.922 25.8084 21.998 25.8084 20.276C25.8084 18.568 25.1084 17.602 23.8484 17.602C22.5884 17.602 21.8884 18.54 21.8884 20.276C21.8884 21.97 22.5884 22.922 23.8484 22.922ZM35.2074 24L33.7234 18.694L33.5694 17.854L33.4014 18.694L31.9174 24H30.0694L27.9134 16.538H29.5234L30.8954 22.082L31.0774 22.922L31.2734 22.082L32.8414 16.538H34.4234L36.0054 22.082L36.1734 22.88L36.3414 22.082L37.7134 16.538H39.2534L37.0834 24H35.2074ZM40.3045 24V16.538H41.8025V17.532C42.3065 16.734 43.0905 16.342 44.0565 16.342C45.6105 16.342 46.5765 17.252 46.5765 19.016V24H45.0925V19.324C45.0925 18.246 44.6165 17.588 43.5945 17.588C42.4745 17.588 41.8025 18.582 41.8025 19.618V24H40.3045ZM48.3983 24V13.92H49.8963V24H48.3983ZM54.8289 24.182C52.6589 24.182 51.3429 22.712 51.3429 20.276C51.3429 17.742 52.7009 16.342 54.8289 16.342C56.9989 16.342 58.3149 17.84 58.3149 20.276C58.3149 22.796 56.9569 24.182 54.8289 24.182ZM54.8289 22.922C56.1029 22.922 56.7889 21.998 56.7889 20.276C56.7889 18.568 56.0889 17.602 54.8289 17.602C53.5689 17.602 52.8689 18.54 52.8689 20.276C52.8689 21.97 53.5689 22.922 54.8289 22.922ZM61.1873 18.974H59.6893C59.9273 17.322 61.0613 16.342 62.9233 16.342C64.9533 16.342 65.9613 17.532 65.9613 19.268V22.18C65.9613 23.076 66.0453 23.594 66.2133 24H64.6453C64.5333 23.72 64.4913 23.328 64.4773 22.908C63.8473 23.79 62.8813 24.182 61.9853 24.182C60.4733 24.182 59.4373 23.468 59.4373 22.04C59.4373 21.018 59.9973 20.262 61.1173 19.884C62.1113 19.548 63.1193 19.464 64.4633 19.45V19.282C64.4633 18.19 63.9593 17.602 62.8113 17.602C61.8453 17.602 61.3273 18.134 61.1873 18.974ZM60.9493 21.984C60.9493 22.614 61.4673 23.006 62.2653 23.006C63.5113 23.006 64.4633 22.012 64.4633 20.808V20.472C61.5933 20.5 60.9493 21.13 60.9493 21.984ZM70.6397 24.182C68.6657 24.182 67.4757 22.712 67.4757 20.276C67.4757 17.742 68.6937 16.342 70.6397 16.342C71.4937 16.342 72.1937 16.692 72.6697 17.378V13.92H74.1677V24H72.6697V23.09C72.1937 23.79 71.4937 24.182 70.6397 24.182ZM70.8357 22.922C72.0257 22.922 72.6697 21.998 72.6697 20.276C72.6697 18.568 71.9977 17.602 70.8357 17.602C69.6457 17.602 69.0017 18.554 69.0017 20.276C69.0017 21.97 69.6737 22.922 70.8357 22.922Z" fill="white"/>
<rect x="43" y="27" width="15.4698" height="15.4698" transform="rotate(45 43 27)" fill="#282833"/>
</svg>
