<svg width="24" height="24" viewBox="0 0 24 24" fill="none" xmlns="http://www.w3.org/2000/svg">
<path d="M19.6742 10.5619V5.77246" stroke="#282833" stroke-opacity="0.7" stroke-width="1.5" stroke-linecap="round" stroke-linejoin="round"/>
<path d="M11.039 16.3224H5.28281C4.22297 16.3224 3.36377 15.4632 3.36377 14.4024V5.74609" stroke="#282833" stroke-opacity="0.7" stroke-width="1.5" stroke-linecap="round" stroke-linejoin="round"/>
<path fill-rule="evenodd" clip-rule="evenodd" d="M17.7456 3.81543H5.29252C4.22692 3.81543 3.36292 4.67943 3.36292 5.74599V5.74599C3.36292 6.38631 3.67972 6.98439 4.20964 7.34343L9.35044 10.8292C10.6608 11.7172 12.3792 11.7172 13.6896 10.8292L18.8285 7.34439C19.3584 6.98535 19.6752 6.38631 19.6752 5.74695V5.74599C19.6743 4.67943 18.8112 3.81543 17.7456 3.81543Z" stroke="#282833" stroke-opacity="0.7" stroke-width="1.5" stroke-linecap="round" stroke-linejoin="round"/>
<path fill-rule="evenodd" clip-rule="evenodd" d="M17.345 13C17.7592 13 18.095 13.3358 18.095 13.75V14.1035C18.5395 14.2292 18.9382 14.4639 19.2605 14.7768L19.5637 14.601C19.922 14.3932 20.3809 14.5153 20.5887 14.8736C20.7964 15.232 20.6744 15.6909 20.316 15.8987L20.0116 16.0751C20.0661 16.2911 20.095 16.5172 20.095 16.75C20.095 16.9828 20.0661 17.2089 20.0116 17.4249L20.316 17.6013C20.6744 17.8091 20.7964 18.268 20.5887 18.6264C20.3809 18.9847 19.922 19.1068 19.5637 18.899L19.2605 18.7232C18.9382 19.0361 18.5395 19.2708 18.095 19.3965V19.7501C18.095 20.1643 17.7592 20.5001 17.345 20.5001C16.9308 20.5001 16.595 20.1643 16.595 19.7501V19.3965C16.1515 19.271 15.7535 19.0371 15.4315 18.7251L15.1215 18.9018C14.7616 19.1069 14.3036 18.9814 14.0985 18.6215C13.8934 18.2617 14.0189 17.8037 14.3788 17.5986L14.6791 17.4274C14.6242 17.2107 14.595 16.9838 14.595 16.75C14.595 16.5162 14.6242 16.2893 14.6791 16.0726L14.3788 15.9014C14.0189 15.6963 13.8934 15.2383 14.0985 14.8785C14.3036 14.5186 14.7616 14.3931 15.1215 14.5982L15.4315 14.7749C15.7535 14.4629 16.1515 14.229 16.595 14.1035V13.75C16.595 13.3358 16.9308 13 17.345 13ZM17.2796 15.5017C16.8665 15.523 16.5065 15.7448 16.2949 16.0716C16.2876 16.0868 16.2797 16.1018 16.2712 16.1166C16.2603 16.1359 16.2486 16.1545 16.2362 16.1724C16.146 16.3452 16.095 16.5416 16.095 16.75C16.095 16.9584 16.146 17.1548 16.2362 17.3276C16.2486 17.3455 16.2603 17.3641 16.2712 17.3834C16.2797 17.3982 16.2876 17.4132 16.2949 17.4284C16.5066 17.7554 16.867 17.9773 17.2804 17.9984C17.3017 17.9965 17.3232 17.9956 17.345 17.9956C17.3668 17.9956 17.3884 17.9965 17.4097 17.9984C18.07 17.9647 18.595 17.4187 18.595 16.75C18.595 16.0816 18.0704 15.5357 17.4105 15.5017C17.3889 15.5035 17.3671 15.5045 17.345 15.5045C17.323 15.5045 17.3012 15.5035 17.2796 15.5017Z" fill="#282833" fill-opacity="0.7"/>
</svg>
