<svg width="27" height="17" viewBox="0 0 27 17" fill="none" xmlns="http://www.w3.org/2000/svg">
<g clip-path="url(#clip0_22523_98106)">
<rect y="0.5" width="26.2857" height="16" rx="2.28853" fill="white"/>
<path fill-rule="evenodd" clip-rule="evenodd" d="M0 0.5H11.2653V7.96667H0V0.5Z" fill="#1A47B8"/>
<path fill-rule="evenodd" clip-rule="evenodd" d="M11.2653 0.5V1.56667H26.2857V0.5H11.2653ZM11.2653 2.63333V3.7H26.2857V2.63333H11.2653ZM11.2653 4.76667V5.83333H26.2857V4.76667H11.2653ZM11.2653 6.9V7.96667H26.2857V6.9H11.2653ZM0 9.03333V10.1H26.2857V9.03333H0ZM0 11.1667V12.2333H26.2857V11.1667H0ZM0 13.3V14.3667H26.2857V13.3H0ZM0 15.4333V16.5H26.2857V15.4333H0Z" fill="#F93939"/>
<path fill-rule="evenodd" clip-rule="evenodd" d="M1.25171 1.56665V2.63332H2.50341V1.56665H1.25171ZM3.75511 1.56665V2.63332H5.00681V1.56665H3.75511ZM6.25851 1.56665V2.63332H7.51021V1.56665H6.25851ZM8.76191 1.56665V2.63332H10.0136V1.56665H8.76191ZM7.51021 2.63332V3.69998H8.76191V2.63332H7.51021ZM5.00681 2.63332V3.69998H6.25851V2.63332H5.00681ZM2.50341 2.63332V3.69998H3.75511V2.63332H2.50341ZM1.25171 3.69998V4.76665H2.50341V3.69998H1.25171ZM3.75511 3.69998V4.76665H5.00681V3.69998H3.75511ZM6.25851 3.69998V4.76665H7.51021V3.69998H6.25851ZM8.76191 3.69998V4.76665H10.0136V3.69998H8.76191ZM1.25171 5.83332V6.89998H2.50341V5.83332H1.25171ZM3.75511 5.83332V6.89998H5.00681V5.83332H3.75511ZM6.25851 5.83332V6.89998H7.51021V5.83332H6.25851ZM8.76191 5.83332V6.89998H10.0136V5.83332H8.76191ZM7.51021 4.76665V5.83332H8.76191V4.76665H7.51021ZM5.00681 4.76665V5.83332H6.25851V4.76665H5.00681ZM2.50341 4.76665V5.83332H3.75511V4.76665H2.50341Z" fill="#EDEDED"/>
</g>
<defs>
<clipPath id="clip0_22523_98106">
<rect y="0.5" width="26.2857" height="16" rx="2.28853" fill="white"/>
</clipPath>
</defs>
</svg>
