<svg width="40" height="40" viewBox="0 0 40 40" fill="none" xmlns="http://www.w3.org/2000/svg">
<path d="M37.6 20.417C37.6 19.117 37.4833 17.867 37.2667 16.667H20V23.7587H29.8667C29.4417 26.0503 28.15 27.992 26.2083 29.292V33.892H32.1333C35.6 30.7003 37.6 26.0003 37.6 20.417Z" fill="#4285F4"/>
<path d="M20.0005 38.3334C24.9505 38.3334 29.1005 36.6917 32.1339 33.8917L26.2089 29.2917C24.5672 30.3917 22.4672 31.0417 20.0005 31.0417C15.2255 31.0417 11.1839 27.8167 9.74219 23.4834H3.61719V28.2334C6.63385 34.2251 12.8339 38.3334 20.0005 38.3334Z" fill="#34A853"/>
<path d="M9.74102 23.4833C9.37435 22.3833 9.16602 21.2083 9.16602 19.9999C9.16602 18.7916 9.37435 17.6166 9.74102 16.5166V11.7666H3.61602C2.33268 14.3214 1.66488 17.141 1.66602 19.9999C1.66602 22.9583 2.37435 25.7583 3.61602 28.2333L9.74102 23.4833Z" fill="#FBBC05"/>
<path d="M20.0005 8.95768C22.6922 8.95768 25.1089 9.88268 27.0089 11.6993L32.2672 6.44102C29.0922 3.48268 24.9422 1.66602 20.0005 1.66602C12.8339 1.66602 6.63385 5.77435 3.61719 11.766L9.74219 16.516C11.1839 12.1827 15.2255 8.95768 20.0005 8.95768Z" fill="#EA4335"/>
</svg>
