<svg width="60" height="60" viewBox="0 0 60 60" fill="none" xmlns="http://www.w3.org/2000/svg">
<rect width="60" height="60" rx="30" fill="white"/>
<rect width="60" height="60" rx="30" fill="#2349B6"/>
<path fill-rule="evenodd" clip-rule="evenodd" d="M21.7294 12.9727C21.7294 14.1235 21.5029 15.2632 21.0629 16.3264C20.6228 17.3897 19.9778 18.3558 19.1646 19.1696C18.3515 19.9834 17.3862 20.629 16.3237 21.0694C15.2613 21.5098 14.1226 21.7365 12.9727 21.7365L12.9727 30.5004C15.2726 30.5004 17.55 30.047 19.6748 29.1661C21.7997 28.2853 23.7304 26.9942 25.3566 25.3666C26.9829 23.739 28.273 21.8068 29.1531 19.6802C30.0332 17.5537 30.4862 15.2744 30.4862 12.9727L21.7294 12.9727Z" fill="#F2F3F7"/>
<path fill-rule="evenodd" clip-rule="evenodd" d="M35.3512 23.2135C33.9112 22.2505 32.2182 21.7365 30.4862 21.7365V12.9727C33.9501 12.9727 37.3361 14.0006 40.2163 15.9266C43.0964 17.8526 45.3411 20.59 46.6667 23.7928C47.9922 26.9955 48.3391 30.5198 47.6633 33.9198C46.9875 37.3198 45.3195 40.443 42.8702 42.8943C40.4209 45.3456 37.3002 47.0149 33.903 47.6912C30.5057 48.3675 26.9842 48.0204 23.7841 46.6938C20.5839 45.3672 17.8486 43.1206 15.9242 40.2382C13.9998 37.3558 12.9727 33.967 12.9727 30.5003H21.7294C21.7294 32.2337 22.243 33.9281 23.2052 35.3693C24.1674 36.8105 25.5351 37.9338 27.1352 38.5971C28.7352 39.2604 30.496 39.4339 32.1946 39.0958C33.8932 38.7576 35.4535 37.923 36.6782 36.6973C37.9029 35.4716 38.7369 33.9101 39.0747 32.2101C39.4126 30.5101 39.2393 28.7479 38.5765 27.1466C37.9137 25.5452 36.7913 24.1764 35.3512 23.2135Z" fill="#F2F3F7"/>
</svg>
