<svg width="24" height="24" viewBox="0 0 24 24" fill="none" xmlns="http://www.w3.org/2000/svg">
<path d="M5.55796 9.76296L5.27096 8.69595C4.98196 7.62695 5.61696 6.52795 6.68696 6.24295L16.73 3.56695C17.79 3.28495 18.89 3.91996 19.176 4.97896L20.93 11.488C21.218 12.557 20.582 13.656 19.514 13.941L17.4 14.504" stroke="#282833" stroke-opacity="0.7" stroke-width="1.5" stroke-linecap="round" stroke-linejoin="round"/>
<path fill-rule="evenodd" clip-rule="evenodd" d="M5 20.4997H15.4C16.505 20.4997 17.4 19.6047 17.4 18.4997V11.7627C17.4 10.6577 16.505 9.7627 15.4 9.7627H5C3.895 9.7627 3 10.6577 3 11.7627V18.4997C3 19.6047 3.896 20.4997 5 20.4997Z" stroke="#282833" stroke-opacity="0.7" stroke-width="1.5" stroke-linecap="round" stroke-linejoin="round"/>
<path d="M3 13.8398H17.4" stroke="#282833" stroke-opacity="0.7" stroke-width="1.5" stroke-linecap="round" stroke-linejoin="round"/>
</svg>
