<svg width="19" height="19" viewBox="0 0 19 19" fill="none" xmlns="http://www.w3.org/2000/svg">
<path fill-rule="evenodd" clip-rule="evenodd" d="M8.13102 10.869C6.96102 9.69897 6.07902 8.38897 5.49302 7.05997C5.37002 6.77897 5.44202 6.44997 5.65902 6.23297L6.47802 5.41397C7.14902 4.74297 7.14902 3.79397 6.56302 3.20797L5.39002 2.03497C4.60902 1.25397 3.34302 1.25397 2.56202 2.03497L1.91002 2.68597C1.16902 3.42697 0.860025 4.49597 1.06002 5.55597C1.55402 8.16897 3.07202 11.03 5.52102 13.479C7.97002 15.928 10.831 17.446 13.444 17.94C14.504 18.14 15.573 17.831 16.314 17.09L16.965 16.439C17.746 15.658 17.746 14.392 16.965 13.611L15.792 12.438C15.206 11.852 14.256 11.852 13.671 12.438L12.768 13.342C12.551 13.559 12.222 13.632 11.941 13.508C10.612 12.921 9.30102 12.038 8.13102 10.869Z" stroke="#282833" stroke-opacity="0.7" stroke-width="1.5" stroke-linecap="round" stroke-linejoin="round"/>
</svg>
