<svg width="35" height="41" viewBox="0 0 35 41" fill="none" xmlns="http://www.w3.org/2000/svg">
<path d="M34.375 20.3135C34.3763 20.844 34.2403 21.3658 33.9802 21.8282C33.72 22.2906 33.3447 22.6778 32.8906 22.9521L4.75 40.167C4.27556 40.4575 3.73216 40.6161 3.17593 40.6264C2.6197 40.6367 2.07081 40.4983 1.58594 40.2256C1.10568 39.9571 0.705618 39.5655 0.426883 39.0911C0.148147 38.6167 0.000802457 38.0766 0 37.5264V3.10058C0.000802457 2.55036 0.148147 2.01028 0.426883 1.53588C0.705618 1.06148 1.10568 0.669886 1.58594 0.401366C2.07081 0.128609 2.6197 -0.00976471 3.17593 0.000535833C3.73216 0.0108364 4.27556 0.169438 4.75 0.45996L32.8906 17.6748C33.3447 17.9492 33.72 18.3364 33.9802 18.7987C34.2403 19.2611 34.3763 19.783 34.375 20.3135Z" fill="white"/>
</svg>
