<svg width="32" height="32" viewBox="0 0 32 32" fill="none" xmlns="http://www.w3.org/2000/svg">
<g clip-path="url(#clip0_22528_60783)">
<path d="M13.9312 1.34125C14.6325 1.23625 15.3513 1.18375 16.0881 1.18375C24.2594 1.18375 30.8869 7.81188 30.8869 15.9825C30.8869 23.4519 25.3463 29.6331 18.1569 30.6413C17.4556 30.7463 16.7369 30.7987 16 30.7987C7.82875 30.7987 1.20125 24.1712 1.20125 16C1.20125 8.53062 6.73312 2.34937 13.9312 1.34125ZM16 0C7.1625 0 0 7.1625 0 16C0 24.8375 7.1625 32 16 32C24.8375 32 32 24.8375 32 16C32 7.1625 24.8375 0 16 0Z" fill="url(#paint0_linear_22528_60783)"/>
<path d="M16.0001 1.20129C15.2988 1.20129 14.6063 1.25379 13.9313 1.34129C6.77694 2.38442 1.28882 8.54817 1.28882 15.9913C1.28882 24.1625 7.91694 30.79 16.0876 30.79C16.7888 30.79 17.4813 30.7375 18.1563 30.65C25.3101 29.6069 30.7988 23.4432 30.7988 16.0088C30.7988 7.82879 24.1713 1.20129 16.0001 1.20129Z" fill="url(#paint1_radial_22528_60783)"/>
<path d="M26.1088 5.89124L14.3169 14.2731L17.815 17.7531L26.1088 5.89124Z" fill="#CD151E"/>
<path d="M14.3257 14.2469L16.0876 15.9912L26.1088 5.89124L14.3257 14.2469Z" fill="#FA5153"/>
<path d="M14.3257 14.2468L17.8238 17.7268L6.02319 26.1087L14.3257 14.2468Z" fill="#ACACAC"/>
<path d="M6.02319 26.1087L16.0876 15.9912L14.3257 14.2468L6.02319 26.1087Z" fill="#EEEEEE"/>
<path d="M25.0124 26.9237C24.9774 26.95 24.9336 26.9675 24.8899 26.9675C24.9336 26.9675 24.9774 26.9587 25.0124 26.9237Z" fill="#E9E9E9"/>
<path d="M25.03 26.915C25.03 26.915 25.0212 26.9238 25.0125 26.9238C25.0212 26.9238 25.0212 26.915 25.03 26.915Z" fill="#E9E9E9"/>
<path d="M20.2432 26.38C20.1994 26.415 20.1819 26.4763 20.1907 26.5288C20.1819 26.4769 20.2082 26.4156 20.2432 26.38Z" fill="#E9E9E9"/>
<path d="M26.9587 24.9775C26.9499 24.9863 26.9499 24.9863 26.9412 24.995C26.9499 24.9863 26.9587 24.9775 26.9587 24.9775Z" fill="#E9E9E9"/>
<path d="M27.0025 24.8638C27.0025 24.8988 26.985 24.9425 26.9587 24.9688C26.9937 24.9425 27.0025 24.9075 27.0025 24.8638Z" fill="#E9E9E9"/>
<path d="M29.5626 12.0288C29.5451 12.0726 29.5014 12.1076 29.4576 12.1251L28.362 12.4844C28.3532 12.4844 28.3532 12.4844 28.3445 12.4932C28.3532 12.4932 28.362 12.4932 28.3707 12.4844L29.4664 12.1251C29.5101 12.1076 29.5451 12.0726 29.5626 12.0288Z" fill="#E9E9E9"/>
<path d="M25.5912 9.87183C25.5649 9.88933 25.5387 9.89808 25.5037 9.89808C25.5299 9.89808 25.5649 9.88933 25.5912 9.87183Z" fill="#E9E9E9"/>
<path d="M24.083 6.25122C24.118 6.27747 24.153 6.29497 24.188 6.29497C24.153 6.28622 24.118 6.27747 24.083 6.25122Z" fill="#E9E9E9"/>
<path d="M24.0745 6.23315C24.0832 6.2419 24.0832 6.2419 24.092 6.25065C24.0832 6.24253 24.0745 6.24253 24.0745 6.23315Z" fill="#E9E9E9"/>
<path d="M14.6325 30.1237C14.6238 30.1237 14.615 30.1237 14.615 30.1237C14.5013 30.115 14.4307 30.0275 14.4307 29.9218L14.5182 28.7556C14.5269 28.6506 14.6057 28.58 14.7025 28.58C14.7113 28.58 14.72 28.58 14.7288 28.58C14.8425 28.5887 14.9132 28.6762 14.9132 28.7818L14.8257 29.9481C14.8163 30.045 14.7375 30.1237 14.6325 30.1237Z" fill="#E9E9E9"/>
<path d="M17.4375 30.115C17.3325 30.115 17.2444 30.045 17.2357 29.9481L17.0869 28.7994C17.0782 28.7031 17.1482 28.5975 17.2625 28.5887C17.2713 28.5887 17.28 28.5887 17.2888 28.5887C17.3938 28.5887 17.4819 28.6587 17.4907 28.7556L17.6394 29.9044C17.6482 30.0006 17.5782 30.1062 17.4638 30.115C17.4557 30.115 17.4469 30.115 17.4375 30.115Z" fill="#E9E9E9"/>
<path d="M20.0944 29.5712C20.0157 29.5712 19.9457 29.5275 19.9101 29.4487L19.5507 28.3531C19.5244 28.2568 19.5769 28.1425 19.6732 28.0987C19.6994 28.09 19.7169 28.09 19.7432 28.09C19.8219 28.09 19.8919 28.1337 19.9276 28.2125L20.2869 29.3081C20.2957 29.3256 20.2957 29.3518 20.2957 29.3693C20.2957 29.4218 20.2694 29.4743 20.2344 29.5093C20.2169 29.5268 20.1907 29.5443 20.1644 29.5531C20.1382 29.5712 20.1207 29.5712 20.0944 29.5712Z" fill="#E9E9E9"/>
<path d="M11.9231 29.5887C11.9056 29.5887 11.8969 29.5887 11.8794 29.5799C11.7831 29.5537 11.7038 29.4399 11.7394 29.3431L12.055 28.2206C12.0725 28.1331 12.1513 28.0806 12.2394 28.0806C12.2569 28.0806 12.2744 28.0806 12.2919 28.0893C12.3881 28.1156 12.4675 28.2293 12.4319 28.3262L12.1163 29.4487C12.1075 29.4837 12.09 29.5099 12.0725 29.5274C12.0288 29.5712 11.9756 29.5887 11.9231 29.5887Z" fill="#E9E9E9"/>
<path d="M15.9738 30.1762C15.8601 30.1762 15.772 30.0887 15.772 29.9918V27.3793C15.772 27.2831 15.8682 27.1949 15.9738 27.1949C16.0876 27.1949 16.1757 27.2824 16.1757 27.3793V29.9918C16.1757 30.0887 16.0876 30.1762 15.9738 30.1762Z" fill="#E9E9E9"/>
<path d="M21.8912 27.415C21.8387 27.3275 21.865 27.2131 21.97 27.1519C22.005 27.1344 22.04 27.1256 22.075 27.1256C22.1362 27.1256 22.1975 27.1519 22.2325 27.2131L22.8112 28.2212C22.8637 28.3087 22.8375 28.4319 22.7325 28.4844C22.6975 28.5019 22.6625 28.5106 22.6275 28.5106C22.5662 28.5106 22.505 28.4844 22.47 28.4231L21.8912 27.415Z" fill="#E9E9E9"/>
<path d="M9.38056 28.5369C9.35431 28.5369 9.31932 28.5282 9.29307 28.5107C9.19682 28.4582 9.15306 28.3438 9.20556 28.2475L9.73182 27.2132C9.76682 27.1432 9.83682 27.1082 9.90744 27.1082C9.93369 27.1082 9.96869 27.1169 9.99494 27.1344C10.0912 27.1869 10.1349 27.3013 10.0824 27.3975L9.55619 28.4319C9.51244 28.4932 9.45119 28.5369 9.38056 28.5369Z" fill="#E9E9E9"/>
<path d="M13.2468 29.9044C13.2293 29.9044 13.2206 29.9044 13.2031 29.8956C13.0893 29.8694 13.0275 29.7731 13.0362 29.6675L13.545 27.1075C13.5712 27.02 13.65 26.9587 13.7556 26.9587C13.7643 26.9587 13.7731 26.9587 13.7818 26.9587C13.8956 26.985 13.9575 27.0812 13.9487 27.1869L13.44 29.7469C13.4137 29.8344 13.335 29.9044 13.2468 29.9044Z" fill="#E9E9E9"/>
<path d="M18.06 27.1868C18.0337 27.0906 18.095 26.985 18.2087 26.9587C18.2262 26.9587 18.235 26.95 18.2525 26.95C18.3487 26.95 18.4281 27.02 18.4456 27.1075L18.9719 29.6674C18.9981 29.7637 18.9194 29.8781 18.8231 29.8956C18.8056 29.8956 18.7969 29.9043 18.7794 29.9043C18.7444 29.9043 18.7094 29.8956 18.6831 29.8781C18.6306 29.8518 18.5956 29.8081 18.5869 29.7556L18.06 27.1868Z" fill="#E9E9E9"/>
<path d="M21.3831 29.0981C21.3043 29.0981 21.2343 29.0544 21.1987 28.9844L20.1906 26.5731C20.1556 26.4856 20.1993 26.3713 20.3043 26.3188C20.3306 26.31 20.3568 26.3013 20.3831 26.3013C20.4618 26.3013 20.5318 26.345 20.5675 26.415L21.5756 28.8263C21.6106 28.9225 21.5668 29.0369 21.4618 29.0806C21.4356 29.0981 21.4093 29.0981 21.3831 29.0981Z" fill="#E9E9E9"/>
<path d="M10.6081 29.0981C10.5819 29.0981 10.5556 29.0894 10.5206 29.0806C10.4244 29.0456 10.3719 28.9319 10.4069 28.8262L11.4063 26.415C11.4413 26.345 11.5113 26.2925 11.5906 26.2925C11.6169 26.2925 11.6431 26.3012 11.6694 26.31C11.7656 26.345 11.8181 26.4587 11.7831 26.5644L10.7838 28.9756C10.7575 29.0631 10.6869 29.0981 10.6081 29.0981Z" fill="#E9E9E9"/>
<path d="M24.8987 27.0025C24.8462 27.0025 24.7937 26.9762 24.7499 26.9412L23.9874 26.0644C23.9262 25.9769 23.9262 25.8537 24.0137 25.7925C24.0574 25.7575 24.1012 25.74 24.1449 25.74C24.1974 25.74 24.2499 25.7662 24.2937 25.8012L25.0562 26.6781C25.1349 26.7569 25.1174 26.88 25.0299 26.95C24.9862 26.985 24.9424 27.0025 24.8987 27.0025Z" fill="#E9E9E9"/>
<path d="M23.7763 27.8182C23.7151 27.8182 23.6538 27.7919 23.6095 27.7307L22.1626 25.5651C22.1013 25.4688 22.1276 25.3544 22.2238 25.2932C22.2588 25.2669 22.2938 25.2582 22.3376 25.2582C22.3988 25.2582 22.4601 25.2844 22.5045 25.3457L23.9513 27.5113C24.0126 27.5988 23.9863 27.7219 23.8901 27.7832C23.8557 27.8094 23.8201 27.8182 23.7763 27.8182Z" fill="#E9E9E9"/>
<path d="M8.18875 27.8006C8.15375 27.8006 8.11 27.7919 8.075 27.7656C7.9875 27.7044 7.96125 27.5812 8.01375 27.4937L9.46063 25.3281C9.49563 25.2756 9.56563 25.2406 9.6275 25.2406C9.6625 25.2406 9.70625 25.2494 9.74125 25.2756C9.82875 25.3369 9.855 25.46 9.8025 25.5475L8.35563 27.7131C8.31125 27.7656 8.25 27.8006 8.18875 27.8006Z" fill="#E9E9E9"/>
<path d="M26.8362 25.065C26.7924 25.065 26.7487 25.0562 26.7137 25.03L25.8018 24.32C25.7143 24.2587 25.7055 24.1356 25.7668 24.0481C25.8018 23.9956 25.863 23.9694 25.9155 23.9694C25.9593 23.9694 26.003 23.9781 26.038 24.0044L26.9499 24.7144C27.0374 24.7756 27.0462 24.8987 26.9849 24.9862C26.9499 25.0387 26.8974 25.065 26.8362 25.065Z" fill="#E9E9E9"/>
<path d="M5.15489 25.0387C5.10239 25.0387 5.04114 25.0125 4.99739 24.9688C4.91864 24.8813 4.93614 24.7581 5.00614 24.6969L5.89177 23.9431C5.92677 23.9081 5.97052 23.8906 6.01427 23.8906C6.06677 23.8906 6.12802 23.9169 6.17177 23.9606C6.25052 24.0481 6.23302 24.1713 6.16302 24.2325L5.27739 24.9862C5.24239 25.0212 5.19864 25.0387 5.15489 25.0387Z" fill="#E9E9E9"/>
<path d="M25.8982 26.0825C25.8457 26.0825 25.8019 26.065 25.7582 26.03L23.9082 24.1888C23.8207 24.11 23.8207 23.9869 23.9082 23.9169C23.9432 23.8819 23.9957 23.8644 24.0482 23.8644C24.1007 23.8644 24.1444 23.8819 24.1882 23.9169L26.0382 25.7581C26.1169 25.8369 26.1169 25.96 26.0382 26.03C26.0032 26.0644 25.9507 26.0825 25.8982 26.0825Z" fill="#E9E9E9"/>
<path d="M6.06698 26.0294C6.01448 26.0294 5.97073 26.0119 5.92698 25.9769C5.84823 25.8982 5.84823 25.775 5.92698 25.705L7.77698 23.8638C7.81198 23.8288 7.86448 23.8113 7.91698 23.8113C7.96948 23.8113 8.01323 23.8288 8.05698 23.8638C8.13573 23.9425 8.13573 24.0657 8.05698 24.1357L6.20698 25.9769C6.16323 26.0119 6.11073 26.0294 6.06698 26.0294Z" fill="#E9E9E9"/>
<path d="M27.625 23.9781C27.59 23.9781 27.555 23.9694 27.5287 23.9519L25.3543 22.505C25.2581 22.4438 25.2406 22.3206 25.3018 22.2331C25.3456 22.1719 25.4068 22.1456 25.4775 22.1456C25.5125 22.1456 25.5475 22.1544 25.5737 22.1719L27.7481 23.6188C27.8356 23.68 27.8618 23.7944 27.8006 23.8906C27.7568 23.9431 27.6868 23.9781 27.625 23.9781Z" fill="#E9E9E9"/>
<path d="M4.3399 23.9344C4.27865 23.9344 4.20865 23.8994 4.17303 23.8381C4.11178 23.7506 4.13803 23.6275 4.22553 23.5662L6.3999 22.1194C6.4349 22.0931 6.4699 22.0844 6.5049 22.0844C6.56615 22.0844 6.63615 22.1194 6.67178 22.1806C6.73303 22.2681 6.70678 22.3912 6.61928 22.4525L4.4449 23.8994C4.41865 23.9256 4.38365 23.9344 4.3399 23.9344Z" fill="#E9E9E9"/>
<path d="M27.2218 22.2513C27.1255 22.2163 27.0818 22.0844 27.1343 21.9882C27.1693 21.9182 27.2393 21.8832 27.3099 21.8832C27.3362 21.8832 27.3712 21.8919 27.3974 21.9094L28.4318 22.4357C28.528 22.4882 28.5718 22.6026 28.5193 22.6988C28.4843 22.7688 28.4143 22.8038 28.3437 22.8038C28.3174 22.8038 28.2824 22.7951 28.2562 22.7776L27.2218 22.2513Z" fill="#E9E9E9"/>
<path d="M3.44556 22.5669C3.44556 22.4969 3.47181 22.4357 3.53306 22.4L4.54118 21.8213C4.56743 21.8038 4.60243 21.795 4.62868 21.795C4.69868 21.795 4.76868 21.83 4.80431 21.8913C4.85681 21.9875 4.83056 22.1019 4.74306 22.1544L3.73493 22.7332C3.70868 22.7507 3.67368 22.7594 3.64743 22.7594C3.64743 22.7594 3.64743 22.7594 3.63868 22.7594C3.63868 22.7594 3.63868 22.7594 3.62993 22.7594C3.56868 22.7594 3.49868 22.7244 3.46306 22.6632C3.45431 22.6282 3.44556 22.5932 3.44556 22.5669Z" fill="#E9E9E9"/>
<path d="M28.905 21.5756C28.8788 21.5756 28.8613 21.5756 28.835 21.5668L26.4238 20.5587C26.3275 20.5062 26.2838 20.3918 26.3275 20.2956C26.3538 20.2168 26.4325 20.1731 26.5119 20.1731C26.5382 20.1731 26.5557 20.1731 26.5819 20.1818L28.9932 21.1812C29.0807 21.2162 29.1157 21.295 29.1069 21.3918C29.1069 21.4093 29.0982 21.4268 29.0982 21.4443C29.0544 21.5318 28.9844 21.5756 28.905 21.5756Z" fill="#E9E9E9"/>
<path d="M2.87573 21.3131C2.87573 21.2344 2.91073 21.1644 2.98948 21.1287L5.40073 20.1294C5.42698 20.1206 5.44448 20.1206 5.47073 20.1206C5.54948 20.1206 5.61948 20.1644 5.65511 20.2431C5.69011 20.3394 5.65511 20.4537 5.55886 20.5062L3.14761 21.5056C3.12136 21.5144 3.10386 21.5144 3.07761 21.5144C2.99886 21.5144 2.92886 21.4706 2.89323 21.3919C2.87573 21.3656 2.87573 21.3394 2.87573 21.3131Z" fill="#E9E9E9"/>
<path d="M29.405 20.2693C29.3875 20.2693 29.37 20.2693 29.3525 20.2606L28.23 19.945C28.1337 19.9187 28.0631 19.8224 28.09 19.7081C28.1075 19.6293 28.1862 19.5593 28.2744 19.5593C28.2919 19.5593 28.3094 19.5593 28.3269 19.5681L29.4494 19.8837C29.4844 19.8925 29.5106 19.91 29.5281 19.9275C29.5806 19.9712 29.5981 20.0499 29.5806 20.1206C29.5625 20.2081 29.4837 20.2693 29.405 20.2693Z" fill="#E9E9E9"/>
<path d="M2.60382 20.2344C2.52507 20.2344 2.44632 20.1819 2.41069 20.0944C2.37569 19.9982 2.41944 19.8838 2.53319 19.84L3.62882 19.4807C3.64632 19.4807 3.66382 19.4719 3.68132 19.4719C3.76882 19.4719 3.84819 19.5244 3.88319 19.6032C3.91819 19.6994 3.87444 19.8138 3.76069 19.8575L2.66507 20.2169C2.64757 20.2344 2.63007 20.2344 2.60382 20.2344Z" fill="#E9E9E9"/>
<path d="M29.7032 18.9632C29.6944 18.9632 29.6857 18.9632 29.6769 18.9632L27.1169 18.4544C27.0207 18.4282 26.9501 18.3319 26.9682 18.2175C26.9944 18.1125 27.0732 18.0507 27.1701 18.0507C27.1788 18.0507 27.1876 18.0507 27.1963 18.0507L29.7563 18.5594C29.8526 18.5857 29.9319 18.6819 29.9051 18.7963C29.8782 18.9019 29.7907 18.9632 29.7032 18.9632Z" fill="#E9E9E9"/>
<path d="M2.17438 18.4987C2.19188 18.49 2.21813 18.4812 2.23563 18.4725L4.79563 17.9725C4.80438 17.9725 4.82188 17.9637 4.83063 17.9637C4.91813 17.9637 4.99751 18.0337 5.01501 18.1306C5.04126 18.2444 4.96251 18.3412 4.86626 18.3675L2.30626 18.8675C2.29751 18.8675 2.28001 18.8762 2.27126 18.8762C2.18376 18.8762 2.10438 18.8062 2.08688 18.7094C2.08688 18.6919 2.07813 18.6831 2.07813 18.6656C2.07751 18.595 2.11313 18.5337 2.17438 18.4987Z" fill="#E9E9E9"/>
<path d="M29.9132 17.6043L28.7469 17.5168C28.6507 17.5081 28.5713 17.4031 28.5713 17.3062C28.58 17.1925 28.6675 17.1218 28.7732 17.1218L29.9394 17.2093C30.0357 17.2181 30.1238 17.3056 30.115 17.42C30.0975 17.5256 30.01 17.6043 29.9132 17.6043Z" fill="#E9E9E9"/>
<path d="M2.07741 17.5431C1.98116 17.5431 1.90178 17.4731 1.88428 17.3675C1.87553 17.2538 1.94553 17.1569 2.05116 17.1394L3.19991 16.9994C3.20866 16.9994 3.21741 16.9994 3.21741 16.9994C3.31366 16.9994 3.39303 17.0694 3.41053 17.175C3.41928 17.2888 3.34928 17.3856 3.24366 17.4031L2.09491 17.5431C2.09553 17.5344 2.08678 17.5431 2.07741 17.5431Z" fill="#E9E9E9"/>
<path d="M27.3711 16.2369C27.2749 16.2369 27.1868 16.1494 27.1868 16.035C27.1868 15.9206 27.2743 15.8331 27.3711 15.8331H29.9836C30.0799 15.8331 30.168 15.9206 30.168 16.035C30.168 16.1494 30.0805 16.2369 29.9836 16.2369H27.3711Z" fill="#E9E9E9"/>
<path d="M2.01616 16.1669C1.91991 16.1669 1.83179 16.0794 1.83179 15.9651C1.83179 15.8513 1.91929 15.7632 2.01616 15.7632H4.62866C4.72491 15.7632 4.81304 15.8507 4.81304 15.9651C4.81304 16.0788 4.72554 16.1669 4.62866 16.1669H2.01616Z" fill="#E9E9E9"/>
<path d="M28.7825 15.0007C28.6862 15.0007 28.6069 14.9307 28.5894 14.825C28.5806 14.7113 28.6506 14.6144 28.7562 14.5969L29.905 14.4569C29.9137 14.4569 29.9225 14.4569 29.9225 14.4569C30.0187 14.4569 30.0981 14.5269 30.1156 14.6325C30.1244 14.7463 30.0544 14.8432 29.9487 14.8607L28.8 15.0007C28.7912 15.0007 28.7825 15.0007 28.7825 15.0007Z" fill="#E9E9E9"/>
<path d="M3.22627 14.8869L2.06002 14.7994C1.96377 14.7907 1.87564 14.7032 1.88439 14.5888C1.89314 14.475 1.98064 14.4044 2.08627 14.4044L3.25252 14.4919C3.34877 14.5007 3.42814 14.6057 3.42814 14.7025C3.41064 14.8163 3.32252 14.8869 3.22627 14.8869Z" fill="#E9E9E9"/>
<path d="M27.1607 14.0275C27.0732 14.0275 26.9938 13.9575 26.9763 13.8606C26.95 13.7469 27.0288 13.65 27.125 13.6237L29.685 13.1237C29.6938 13.1237 29.7113 13.115 29.72 13.115C29.8075 13.115 29.8869 13.185 29.9044 13.2819C29.9044 13.2994 29.9132 13.3081 29.9132 13.3256C29.9219 13.3956 29.8782 13.4656 29.8169 13.4925C29.7994 13.5012 29.7732 13.51 29.7557 13.5187L27.1957 14.0187C27.1869 14.0275 27.1782 14.0275 27.1607 14.0275Z" fill="#E9E9E9"/>
<path d="M4.83942 13.9488C4.83067 13.9488 4.82192 13.9488 4.81317 13.9488L2.25317 13.44C2.15692 13.4138 2.07754 13.3175 2.10442 13.2031C2.13067 13.0981 2.20942 13.0363 2.30629 13.0363C2.31504 13.0363 2.32379 13.0363 2.33254 13.0363L4.89254 13.545C4.98879 13.5713 5.05942 13.6675 5.04129 13.7819C5.01504 13.8869 4.92692 13.9488 4.83942 13.9488Z" fill="#E9E9E9"/>
<path d="M29.3351 11.7744C29.3526 11.7656 29.3701 11.7656 29.3876 11.7656C29.3876 11.7656 29.3876 11.7656 29.3964 11.7656C29.4751 11.7656 29.5539 11.8181 29.5895 11.9056C29.6245 12.0019 29.5807 12.1162 29.467 12.16L28.3714 12.5194C28.3539 12.5194 28.3364 12.5281 28.3189 12.5281C28.2314 12.5281 28.152 12.4756 28.117 12.3969C28.082 12.3006 28.1257 12.1862 28.2395 12.1425L29.3351 11.7744Z" fill="#E9E9E9"/>
<path d="M2.47239 12.0638C2.41989 12.02 2.40239 11.9413 2.41989 11.8707C2.43739 11.7919 2.51614 11.7219 2.60427 11.7219C2.62177 11.7219 2.63927 11.7219 2.65677 11.7307L3.77927 12.0463C3.87552 12.0725 3.94614 12.1688 3.91927 12.2832C3.90177 12.3619 3.82302 12.4319 3.73489 12.4319C3.71739 12.4319 3.69989 12.4319 3.68239 12.4232L2.55989 12.1075C2.51614 12.1075 2.48989 12.09 2.47239 12.0638Z" fill="#E9E9E9"/>
<path d="M26.5294 11.8881C26.4507 11.8881 26.3807 11.8444 26.3451 11.7656C26.3101 11.6694 26.3451 11.555 26.4413 11.5025L28.8526 10.5031C28.8788 10.4944 28.8963 10.4944 28.9226 10.4944C29.0013 10.4944 29.0713 10.5381 29.1069 10.6169C29.1157 10.6431 29.1244 10.6694 29.1244 10.6956C29.1244 10.7744 29.0894 10.8444 29.0107 10.88L26.5994 11.8794C26.5732 11.8794 26.5557 11.8881 26.5294 11.8881Z" fill="#E9E9E9"/>
<path d="M2.91065 10.5468C2.9369 10.4681 3.01565 10.4243 3.09502 10.4243C3.12127 10.4243 3.13877 10.4243 3.16502 10.4331L5.57627 11.4324C5.67252 11.4849 5.71627 11.5993 5.67252 11.6956C5.64627 11.7743 5.56752 11.8181 5.48815 11.8181C5.4619 11.8181 5.4444 11.8181 5.41815 11.8093L3.0069 10.8099C2.9194 10.7749 2.8844 10.6962 2.89315 10.5993C2.9019 10.5818 2.9019 10.5643 2.91065 10.5468Z" fill="#E9E9E9"/>
<path d="M28.3532 9.2406C28.4232 9.2406 28.4845 9.2756 28.5201 9.33685C28.5376 9.37185 28.5463 9.40685 28.5463 9.4331C28.5463 9.5031 28.5201 9.56435 28.4588 9.59998L27.4507 10.1787C27.4245 10.1962 27.3895 10.205 27.3632 10.205C27.2932 10.205 27.2232 10.17 27.1876 10.1087C27.1351 10.0125 27.1613 9.8981 27.2488 9.8456L28.257 9.26685C28.2913 9.24935 28.3176 9.2406 28.3532 9.2406Z" fill="#E9E9E9"/>
<path d="M4.69057 10.1262C4.66432 10.1262 4.62932 10.1174 4.60307 10.0999L3.5687 9.57369C3.47245 9.52119 3.4287 9.40682 3.4812 9.31057C3.5162 9.24057 3.5862 9.20557 3.65682 9.20557C3.68307 9.20557 3.71807 9.21432 3.74432 9.23182L4.7787 9.75807C4.87495 9.79307 4.9187 9.92494 4.8662 10.0212C4.83057 10.0824 4.76057 10.1262 4.69057 10.1262Z" fill="#E9E9E9"/>
<path d="M25.4949 9.92434C25.4337 9.92434 25.3637 9.88934 25.3281 9.82809C25.2668 9.74059 25.2931 9.61747 25.3806 9.55622L27.5549 8.10934C27.5899 8.08309 27.6249 8.07434 27.6599 8.07434C27.7212 8.07434 27.7912 8.10934 27.8268 8.17059C27.8881 8.25809 27.8618 8.38122 27.7743 8.44247L25.5999 9.88934C25.5649 9.90684 25.5299 9.92434 25.4949 9.92434Z" fill="#E9E9E9"/>
<path d="M6.52256 9.86314C6.48756 9.86314 6.45256 9.85439 6.42631 9.83689L4.26069 8.39001C4.17319 8.32876 4.14694 8.21439 4.20819 8.11814C4.25194 8.05689 4.31319 8.03064 4.38381 8.03064C4.41881 8.03064 4.45381 8.03939 4.48006 8.05689L6.64569 9.50376C6.74194 9.56501 6.75944 9.68814 6.69819 9.77564C6.66319 9.83689 6.59319 9.86314 6.52256 9.86314Z" fill="#E9E9E9"/>
<path d="M25.9769 8.10943C25.9244 8.10943 25.8632 8.08318 25.8194 8.03943C25.7407 7.95193 25.7582 7.8288 25.8282 7.76755L26.7138 7.0138C26.7488 6.9788 26.7925 6.9613 26.8363 6.9613C26.8888 6.9613 26.95 6.98755 26.9938 7.0313C27.0725 7.1188 27.055 7.24193 26.985 7.30318L26.0994 8.05693C26.0644 8.09193 26.0207 8.10943 25.9769 8.10943Z" fill="#E9E9E9"/>
<path d="M6.08445 8.03935C6.0407 8.03935 5.99695 8.0306 5.96195 8.00435L5.05008 7.29435C4.96258 7.2331 4.95383 7.10998 5.01508 7.02248C5.05008 6.96998 5.11133 6.94373 5.16383 6.94373C5.20758 6.94373 5.25133 6.95248 5.28633 6.97873L6.1982 7.68873C6.2857 7.74998 6.29445 7.8731 6.2332 7.9606C6.1982 8.0131 6.1457 8.03935 6.08445 8.03935Z" fill="#E9E9E9"/>
<path d="M7.95189 8.14439C7.89939 8.14439 7.85564 8.12689 7.81189 8.09189L5.96189 6.25064C5.88314 6.17189 5.88314 6.04877 5.96189 5.97877C5.99689 5.94377 6.04939 5.92627 6.10189 5.92627C6.15439 5.92627 6.19814 5.94377 6.24189 5.97877L8.09189 7.82002C8.17939 7.89877 8.17939 8.02189 8.09189 8.09189C8.04814 8.12689 8.00439 8.14439 7.95189 8.14439Z" fill="#E9E9E9"/>
<path d="M24.2062 6.31248C24.1625 6.31248 24.1187 6.29498 24.075 6.25998C23.9875 6.19873 23.9787 6.0756 24.04 5.9881L24.7675 5.07623C24.8025 5.02373 24.855 5.00623 24.9162 5.00623C24.96 5.00623 25.0037 5.02373 25.0475 5.05873C25.135 5.11998 25.1437 5.2431 25.0825 5.3306L24.355 6.24248C24.3112 6.28623 24.2587 6.31248 24.2062 6.31248Z" fill="#E9E9E9"/>
<path d="M7.85558 6.26006C7.80308 6.26006 7.75058 6.23381 7.70683 6.19881L6.94433 5.32193C6.86558 5.24318 6.88308 5.12006 6.97058 5.05006C7.01433 5.01506 7.05808 4.99756 7.10183 4.99756C7.15433 4.99756 7.20683 5.02381 7.25058 5.05881L8.01308 5.93568C8.07433 6.02318 8.07433 6.14631 7.98683 6.20756C7.94308 6.25131 7.89933 6.26006 7.85558 6.26006Z" fill="#E9E9E9"/>
<path d="M22.3738 6.75934C22.3388 6.75934 22.2951 6.75059 22.2601 6.72434C22.1726 6.66309 22.1463 6.53997 22.1988 6.45247L23.6457 4.28684C23.6807 4.23434 23.7419 4.19934 23.8032 4.19934C23.8382 4.19934 23.8819 4.20809 23.9169 4.23434C24.0044 4.29559 24.0307 4.41872 23.9782 4.50622L22.5313 6.67184C22.4963 6.73309 22.4351 6.75934 22.3738 6.75934Z" fill="#E9E9E9"/>
<path d="M9.66135 6.7331C9.6001 6.7331 9.53885 6.70685 9.49447 6.6456L8.0476 4.47997C7.98635 4.39247 8.0126 4.26935 8.10885 4.2081C8.14385 4.18185 8.17885 4.1731 8.2226 4.1731C8.28385 4.1731 8.3451 4.19935 8.38947 4.2606L9.83635 6.42622C9.8976 6.52247 9.87135 6.63685 9.7751 6.6981C9.7401 6.72435 9.7051 6.7331 9.66135 6.7331Z" fill="#E9E9E9"/>
<path d="M9.38065 3.48938C9.4419 3.48938 9.50315 3.51563 9.53815 3.57688L10.1169 4.585C10.1694 4.6725 10.1432 4.78688 10.0382 4.84813C10.0032 4.86563 9.96815 4.87438 9.93315 4.87438C9.8719 4.87438 9.81065 4.84813 9.77565 4.78688L9.1969 3.77875C9.1444 3.69125 9.17065 3.56813 9.27565 3.51563C9.31065 3.49813 9.34565 3.48938 9.38065 3.48938Z" fill="#E9E9E9"/>
<path d="M22.1018 4.90067C22.0755 4.90067 22.0405 4.89192 22.0143 4.87442C21.918 4.82192 21.8743 4.70755 21.9268 4.6113L22.453 3.57692C22.488 3.50692 22.558 3.47192 22.6286 3.47192C22.6549 3.47192 22.6899 3.48067 22.7161 3.49817C22.8124 3.55067 22.8561 3.66505 22.8036 3.7613L22.2774 4.79567C22.2424 4.85692 22.1718 4.90067 22.1018 4.90067Z" fill="#E9E9E9"/>
<path d="M11.625 5.68994C11.5463 5.68994 11.4763 5.64619 11.4406 5.57619L10.4325 3.16494C10.3975 3.06869 10.4413 2.95432 10.5463 2.91057C10.5725 2.90182 10.5988 2.89307 10.625 2.89307C10.7038 2.89307 10.7738 2.93682 10.8094 3.00682L11.8175 5.41807C11.8525 5.50557 11.8088 5.61994 11.7038 5.67244C11.6775 5.68119 11.6513 5.68994 11.625 5.68994Z" fill="#E9E9E9"/>
<path d="M20.4099 5.69873C20.3837 5.69873 20.3574 5.68998 20.3312 5.68123C20.2349 5.64623 20.1824 5.53248 20.2174 5.42686L21.2168 3.01561C21.243 2.94561 21.313 2.90186 21.3924 2.90186C21.4187 2.90186 21.4449 2.91061 21.4799 2.91936C21.5762 2.95436 21.6287 3.06811 21.5937 3.17373L20.5937 5.58436C20.5499 5.64623 20.4799 5.69873 20.4099 5.69873Z" fill="#E9E9E9"/>
<path d="M11.7656 2.48121C11.7831 2.46371 11.8093 2.44621 11.8356 2.43746C11.8618 2.42871 11.8793 2.42871 11.9056 2.42871C11.9843 2.42871 12.0543 2.47246 12.0899 2.55121L12.4493 3.64684C12.4756 3.74309 12.4231 3.85746 12.3268 3.90121C12.3006 3.90996 12.2831 3.90996 12.2568 3.90996C12.1781 3.90996 12.1081 3.86621 12.0724 3.78746L11.7131 2.69184C11.7043 2.67434 11.7043 2.64809 11.7043 2.63059C11.6956 2.57746 11.7218 2.51621 11.7656 2.48121Z" fill="#E9E9E9"/>
<path d="M19.9363 2.4725C19.9713 2.4375 20.0238 2.41125 20.0851 2.41125C20.1026 2.41125 20.1113 2.41125 20.1288 2.42C20.2251 2.44625 20.3044 2.56 20.2688 2.65688L19.9532 3.77938C19.9357 3.86688 19.8569 3.91938 19.7688 3.91938C19.7513 3.91938 19.7338 3.91938 19.7163 3.91063C19.6201 3.88438 19.5407 3.77063 19.5763 3.67375L19.8919 2.55125C19.8926 2.51625 19.9101 2.49 19.9363 2.4725Z" fill="#E9E9E9"/>
<path d="M13.7469 5.04129C13.6507 5.04129 13.5713 4.97129 13.5538 4.88379L13.0276 2.32379C13.0013 2.22754 13.0801 2.11316 13.1763 2.09566C13.1938 2.09566 13.2026 2.08691 13.2201 2.08691C13.2551 2.08691 13.2901 2.09566 13.3163 2.11316C13.3688 2.13941 13.4038 2.18316 13.4126 2.23566L13.9388 4.79566C13.9651 4.89191 13.9038 4.99754 13.7901 5.02379C13.7732 5.04129 13.7557 5.04129 13.7469 5.04129Z" fill="#E9E9E9"/>
<path d="M18.2445 5.04121C18.2357 5.04121 18.227 5.04121 18.2182 5.04121C18.1045 5.01496 18.0426 4.91871 18.0514 4.81308L18.5601 2.25308C18.5776 2.16558 18.6564 2.09558 18.7532 2.09558C18.7707 2.09558 18.7795 2.09558 18.797 2.10433C18.9107 2.13058 18.9726 2.22683 18.9639 2.33246L18.4551 4.89246C18.4289 4.97996 18.3407 5.04121 18.2445 5.04121Z" fill="#E9E9E9"/>
<path d="M14.7112 3.41065C14.6062 3.41065 14.5181 3.34065 14.5093 3.24377L14.3606 2.09502C14.3518 1.99877 14.4218 1.89315 14.5362 1.8844C14.545 1.8844 14.5537 1.8844 14.5625 1.8844C14.6675 1.8844 14.7556 1.9544 14.7643 2.05127L14.9131 3.20002C14.9218 3.29627 14.8518 3.4019 14.7375 3.41065C14.7287 3.41065 14.72 3.41065 14.7112 3.41065Z" fill="#E9E9E9"/>
<path d="M17.2975 3.41057C17.2888 3.41057 17.28 3.41057 17.2713 3.41057C17.1575 3.40182 17.0869 3.31432 17.0869 3.2087L17.1744 2.04245C17.1832 1.9462 17.2619 1.86682 17.3675 1.86682C17.3763 1.86682 17.385 1.86682 17.385 1.86682C17.4988 1.87557 17.5694 1.96307 17.5694 2.0687L17.4819 3.23495C17.4732 3.33995 17.4025 3.41057 17.2975 3.41057Z" fill="#E9E9E9"/>
<path d="M16.0263 4.81316C15.9126 4.81316 15.8245 4.72566 15.8245 4.62878V2.01628C15.8245 1.92003 15.912 1.83191 16.0263 1.83191C16.1401 1.83191 16.2282 1.91941 16.2282 2.01628V4.62878C16.2282 4.72566 16.1226 4.81316 16.0263 4.81316Z" fill="#E9E9E9"/>
</g>
<defs>
<linearGradient id="paint0_linear_22528_60783" x1="16.0001" y1="31.9991" x2="16.0001" y2="3.05167e-05" gradientUnits="userSpaceOnUse">
<stop stop-color="#DBDBDA"/>
<stop offset="0.25" stop-color="#DBDBDA"/>
<stop offset="1" stop-color="white"/>
</linearGradient>
<radialGradient id="paint1_radial_22528_60783" cx="0" cy="0" r="1" gradientUnits="userSpaceOnUse" gradientTransform="translate(18.849 13.3644) scale(18.827)">
<stop stop-color="#69BEFF"/>
<stop offset="1" stop-color="#0072C4"/>
</radialGradient>
<clipPath id="clip0_22528_60783">
<rect width="32" height="32" fill="white"/>
</clipPath>
</defs>
</svg>
