  <svg
            width="36" height="26"
            viewBox="0 0 60 60"
            fill="none"
            xmlns="http://www.w3.org/2000/svg"
        >
            <rect width="60" height="60" rx="30" fill="white" />
            <rect
                width="60"
                height="60"
                rx="30"
                fill="#FFBE2E"
                fill-opacity="0.1"
            />
            <g clip-path="url(#clip0_31382_348965)">
                <path
                    d="M23.4636 29.9489C23.4771 28.2603 24.1441 26.6426 25.3245 25.435C26.5049 24.2275 28.1071 23.524 29.7949 23.4721V12.0078C28.8386 12.0575 27.8907 12.2131 26.9687 12.4719C26.88 12.4897 26.7991 12.5346 26.737 12.6004C26.675 12.6661 26.6349 12.7495 26.6223 12.8391C26.3937 13.7742 26.089 14.7025 25.9296 15.6584C25.7842 16.455 25.4724 17.0023 24.6273 17.1408C24.5935 17.1442 24.5618 17.1589 24.5373 17.1824C24.4507 17.2362 24.3495 17.2617 24.2478 17.2555C24.146 17.2493 24.0487 17.2116 23.9693 17.1477C22.8679 16.455 21.7595 15.8108 20.6651 15.1319C20.5788 15.0714 20.476 15.039 20.3706 15.039C20.2653 15.039 20.1625 15.0714 20.0762 15.1319C18.1237 16.2065 16.5239 17.8232 15.4698 19.7869C15.4372 19.8587 15.4204 19.9367 15.4204 20.0155C15.4204 20.0943 15.4372 20.1723 15.4698 20.2441C15.9962 21.1793 16.5157 22.1214 17.0976 23.0149C17.2842 23.2122 17.3955 23.4688 17.4119 23.7398C17.4284 24.0108 17.349 24.279 17.1877 24.4973C17.1263 24.5813 17.0859 24.6786 17.0699 24.7813C17.0076 25.0653 16.8067 25.1623 16.5365 25.2247C15.3104 25.5156 14.0774 25.8273 12.8444 26.1113C12.7455 26.1281 12.6538 26.174 12.581 26.2431C12.5082 26.3122 12.4577 26.4013 12.4357 26.4992C11.8157 28.6396 11.8157 30.9119 12.4357 33.0523C12.4573 33.1389 12.5045 33.217 12.5713 33.2763C12.638 33.3357 12.7212 33.3735 12.8098 33.3848C13.7518 33.6203 14.6801 33.932 15.6291 34.0775C16.4465 34.2229 17.0145 34.5555 17.1253 35.4075C17.1184 35.4277 17.1184 35.4496 17.1253 35.4698C17.187 35.5591 17.2166 35.6667 17.209 35.775C17.2015 35.8833 17.1573 35.9857 17.0837 36.0655C16.391 37.16 15.7399 38.2614 15.061 39.3628C15.0049 39.4324 14.9714 39.5176 14.9652 39.6068C14.959 39.696 14.9804 39.7849 15.0264 39.8616C16.0972 41.8423 17.7253 43.4655 19.7091 44.5304C19.781 44.563 19.8589 44.5798 19.9377 44.5798C20.0165 44.5798 20.0945 44.563 20.1663 44.5304C21.053 44.0317 21.9466 43.5537 22.7848 42.9857C23.0209 42.7605 23.329 42.6259 23.6547 42.6057C23.9803 42.5854 24.3027 42.6807 24.565 42.8749C24.6261 42.9085 24.6913 42.9341 24.759 42.951C24.9875 42.9995 25.0776 43.152 25.133 43.3736C25.4309 44.6413 25.7495 45.902 26.0474 47.1627C26.0612 47.2573 26.1039 47.3453 26.1696 47.4148C26.2353 47.4842 26.3208 47.5317 26.4145 47.5506C27.494 47.8688 28.6142 48.0275 29.7395 48.0217V36.5158C28.0459 36.4493 26.4443 35.7271 25.2733 34.5018C24.1022 33.2764 23.4533 31.6439 23.4636 29.9489Z"
                    fill="#FFBE2E"
                />
                <path
                    d="M47.5293 26.9886C47.51 26.8958 47.4623 26.8112 47.3928 26.7467C47.3233 26.6821 47.2354 26.6408 47.1414 26.6284C46.0885 26.3652 45.0633 26.0604 43.9896 25.8318C43.4423 25.7141 43.0752 25.5063 42.9713 24.9313C42.9469 24.7823 42.8902 24.6404 42.805 24.5157C42.7527 24.4291 42.7291 24.3281 42.7378 24.2272C42.7465 24.1264 42.7871 24.0309 42.8535 23.9546C43.5462 22.8601 44.1905 21.7518 44.8693 20.6573C44.9318 20.5718 44.9655 20.4688 44.9655 20.3629C44.9655 20.257 44.9318 20.154 44.8693 20.0685C43.7958 18.1287 42.1935 16.5337 40.2489 15.4689C40.1757 15.418 40.0887 15.3907 39.9996 15.3907C39.9104 15.3907 39.8234 15.418 39.7502 15.4689C38.7527 16.0716 37.7413 16.6465 36.7508 17.2561C36.6157 17.3749 36.4447 17.4449 36.2651 17.455C36.0855 17.465 35.9077 17.4145 35.7602 17.3115C35.5728 17.2022 35.3727 17.1161 35.1645 17.0552C35.0713 17.0329 34.9874 16.9823 34.9241 16.9104C34.8609 16.8384 34.8214 16.7487 34.8112 16.6535C34.5133 15.3997 34.1947 14.1459 33.9037 12.8921C33.8883 12.7815 33.8385 12.6786 33.7615 12.5978C33.6844 12.517 33.584 12.4625 33.4743 12.4418C32.2787 12.0924 31.0332 11.9449 29.7891 12.0054V23.4697H30.0107C30.886 23.4412 31.7581 23.589 32.5751 23.9042C33.3921 24.2195 34.1374 24.6958 34.7666 25.3049C35.3958 25.9139 35.8962 26.6433 36.2379 27.4496C36.5796 28.2559 36.7556 29.1227 36.7556 29.9984C36.7556 30.8742 36.5796 31.741 36.2379 32.5473C35.8962 33.3536 35.3958 34.083 34.7666 34.6921C34.1374 35.3011 33.3921 35.7774 32.5751 36.0927C31.7581 36.408 30.886 36.5558 30.0107 36.5272H29.8168V48.0123C30.8898 47.9939 31.956 47.8379 32.9894 47.5482C33.0888 47.5307 33.1803 47.4826 33.2511 47.4105C33.3219 47.3385 33.3684 47.2462 33.3842 47.1464C33.6544 46.0727 33.9661 45.0129 34.1947 43.9323C34.2092 43.7009 34.3023 43.4815 34.4585 43.3102C34.6147 43.1389 34.8246 43.026 35.0536 42.9902C35.1969 42.9541 35.3345 42.8981 35.4623 42.8239C35.5552 42.7691 35.6625 42.7437 35.7701 42.7512C35.8777 42.7586 35.9805 42.7984 36.065 42.8655C37.1595 43.5582 38.2678 44.2024 39.3623 44.8744C39.4447 44.9316 39.5425 44.9622 39.6428 44.9622C39.7431 44.9622 39.841 44.9316 39.9234 44.8744C41.8783 43.8061 43.4792 42.1908 44.5299 40.2263C44.564 40.1488 44.5817 40.0651 44.5817 39.9804C44.5817 39.8957 44.564 39.812 44.5299 39.7345C44.0519 38.8894 43.5947 38.0304 43.0406 37.2338C42.7914 36.9731 42.6423 36.6328 42.6195 36.2729C42.5966 35.913 42.7016 35.5566 42.9159 35.2665C42.9413 35.2284 42.96 35.1862 42.9713 35.1418C42.991 35.0543 43.0378 34.9751 43.1049 34.9155C43.172 34.8558 43.2561 34.8187 43.3453 34.8093C44.5991 34.5114 45.846 34.1928 47.1067 33.9019C47.222 33.8842 47.329 33.8316 47.4132 33.751C47.4975 33.6705 47.555 33.5659 47.5778 33.4516C48.171 31.3358 48.1542 29.0953 47.5293 26.9886Z"
                    fill="#EA9D04"
                />
            </g>
            <defs>
                <clipPath id="clip0_31382_348965">
                    <rect
                        width="36"
                        height="36"
                        fill="white"
                        transform="translate(12 12)"
                    />
                </clipPath>
            </defs>
        </svg>