<svg width="46" height="34" viewBox="0 0 46 34" fill="none" xmlns="http://www.w3.org/2000/svg">
<path d="M40.7804 33.3371H5.11797C2.28675 33.3371 0 31.0567 0 28.2334V5.10373C0 2.28039 2.28675 0 5.11797 0H40.7804C43.6116 0 45.8984 2.28039 45.8984 5.10373V28.2334C45.8439 31.0567 43.5572 33.3371 40.7804 33.3371Z" fill="#2948FF"/>
<path d="M25.8076 19.8718C24.0653 21.0663 21.7786 21.0663 20.0363 19.8718L15.8439 16.9942L14.0472 19.0574L19.6552 24.2154C21.4519 26.0614 24.392 26.0614 26.1887 24.2154L31.7967 19.0574L30 16.9942L25.8076 19.8718ZM0 6.18945L12.9038 18.0258L14.5917 16.1254L0 6.18945ZM31.3067 16.1254L32.9401 18.0258L45.8439 6.18945L31.3067 16.1254Z" fill="#103BB2"/>
<path d="M32.9396 18.0254L31.7962 19.057L43.4477 32.5221C43.8833 32.2507 44.2644 31.9249 44.5911 31.5448L32.9396 18.0254ZM1.19727 31.5448C1.52394 31.9249 1.90507 32.2507 2.34064 32.5221L13.9922 19.057L12.8488 18.0254L1.19727 31.5448Z" fill="#1943C2"/>
<path d="M31.3072 16.125L30.0005 16.9937L31.7972 19.0569L32.9406 18.0253L31.3072 16.125ZM12.9043 18.0253L14.0477 19.0569L15.8444 16.9937L14.5921 16.125L12.9043 18.0253Z" fill="#112E85"/>
<path d="M44.3739 1.52065C43.4483 0.597637 42.196 0.0546875 40.7804 0.0546875H5.11797C3.70236 0.0546875 2.45009 0.597637 1.5245 1.52065C0.544465 2.44367 0 3.69245 0 5.10412V6.13572L14.5917 16.0717L15.8439 16.9404L20.0363 19.8181C21.7786 21.0125 24.0653 21.0125 25.8076 19.8181L30 16.9404L31.2523 16.0717L45.8439 6.13572V5.10412C45.8439 3.69245 45.2995 2.44367 44.3739 1.52065Z" fill="#396AFC"/>
</svg>
