<svg width="35" height="41" viewBox="0 0 35 41" fill="none" xmlns="http://www.w3.org/2000/svg">
<path d="M34.8828 20.3135C34.8841 20.844 34.7481 21.3658 34.488 21.8282C34.2279 22.2906 33.8525 22.6778 33.3984 22.9521L5.25781 40.167C4.78337 40.4575 4.23998 40.6161 3.68375 40.6264C3.12752 40.6367 2.57862 40.4983 2.09375 40.2256C1.6135 39.9571 1.21343 39.5655 0.934695 39.0911C0.65596 38.6167 0.508615 38.0766 0.507812 37.5264V3.10058C0.508615 2.55036 0.65596 2.01028 0.934695 1.53588C1.21343 1.06148 1.6135 0.669886 2.09375 0.401366C2.57862 0.128609 3.12752 -0.00976471 3.68375 0.000535833C4.23998 0.0108364 4.78337 0.169438 5.25781 0.45996L33.3984 17.6748C33.8525 17.9492 34.2279 18.3364 34.488 18.7987C34.7481 19.2611 34.8841 19.783 34.8828 20.3135Z" fill="white"/>
</svg>
