<svg width="168" height="41" viewBox="0 0 168 41" fill="none" xmlns="http://www.w3.org/2000/svg">
<path d="M0 36.8658V31.9107L7.27383 22.9916H0.563135V15.0634H19.4751V20.0185L12.2013 28.9377H20.0382V36.8658H0Z" fill="#292933"/>
<path d="M27.9859 36.8658L19.9143 15.0634H31.3647L33.805 24.6267L37.1369 15.0634H41.4073L44.7392 24.6267L47.1794 15.0634H58.6299L50.5582 36.8658H41.6889L39.2955 30.1764L36.8553 36.8658H27.9859Z" fill="#292933"/>
<path d="M69.3767 9.06779C68.313 10.0258 66.9521 10.5048 65.294 10.5048C63.6359 10.5048 62.275 10.0258 61.2113 9.06779C60.1476 8.07678 59.6157 6.80498 59.6157 5.25238C59.6157 3.69979 60.1476 2.4445 61.2113 1.48652C62.275 0.495507 63.6359 0 65.294 0C66.9521 0 68.313 0.495507 69.3767 1.48652C70.4404 2.4445 70.9723 3.69979 70.9723 5.25238C70.9723 6.80498 70.4404 8.07678 69.3767 9.06779ZM60.0381 36.8658V15.0634H70.5968V36.8658H60.0381Z" fill="#292933"/>
<path d="M83.2047 36.8658C80.2326 36.8658 77.8862 35.9574 76.1655 34.1405C74.4761 32.3236 73.6314 29.8296 73.6314 26.6583V0.198204H84.1902V26.361C84.1902 27.2199 84.3623 27.8971 84.7064 28.3926C85.0818 28.8551 85.5667 29.0863 86.1611 29.0863H87.0528L86.3958 36.8658H83.2047Z" fill="#292933"/>
<path d="M105.26 29.0368L107.184 35.3297C105.088 36.9153 102.867 37.7082 100.52 37.7082C97.1728 37.7082 94.5292 36.7337 92.5895 34.7847C90.6811 32.8357 89.7269 30.1599 89.7269 26.7574V22.9916H87.099V15.0634H90.5716L90.9471 7.43262H100.286V15.0634H105.589V22.9916H100.286V26.7574C100.286 27.7154 100.473 28.4752 100.849 29.0368C101.256 29.5653 101.803 29.8296 102.491 29.8296C103.242 29.8296 104.165 29.5653 105.26 29.0368Z" fill="#292933"/>
<path d="M143.592 24.9197C143.592 32.4464 137.486 38.548 129.953 38.548C122.42 38.548 116.314 32.4464 116.314 24.9197C116.314 17.393 122.42 11.2914 129.953 11.2914C137.486 11.2914 143.592 17.393 143.592 24.9197Z" fill="#FFBE2E"/>
<path d="M140.085 40.8843V8.95508L167.363 24.9197L140.085 40.8843Z" fill="#FFBE2E"/>
</svg>
