<svg width="66" height="11" viewBox="0 0 66 11" fill="none" xmlns="http://www.w3.org/2000/svg">
<path d="M34.7837 0.0400314C31.6936 0.0400314 29.1865 2.45402 29.1865 5.43334C29.1865 8.60085 31.5847 10.9687 34.7837 10.9687C37.9028 10.9687 40.3656 8.56955 40.3656 5.49553C40.3656 2.43979 37.9193 0.0400314 34.7837 0.0400314Z" fill="#D9D9D9"/>
<path d="M34.7837 0.0400314C31.6936 0.0400314 29.1865 2.45402 29.1865 5.43334C29.1865 8.60085 31.5847 10.9687 34.7837 10.9687C37.9028 10.9687 40.3656 8.56955 40.3656 5.49553C40.3656 2.43979 37.9193 0.0400314 34.7837 0.0400314Z" fill="url(#paint0_linear_30601_150307)"/>
<path d="M3.009 0.236745H0V10.732H2.99335C4.58147 10.732 5.73004 10.3556 6.73758 9.52101C7.93309 8.52952 8.6421 7.03447 8.6421 5.48943C8.6421 2.39082 6.32729 0.236745 3.009 0.236745ZM5.40205 8.11923C4.75502 8.70307 3.92204 8.95526 2.5983 8.95526H2.0484V2.01386H2.5983C3.92204 2.01386 4.72311 2.25019 5.40205 2.86329C6.11005 3.49285 6.53233 4.46767 6.53233 5.47439C6.53233 6.48315 6.11005 7.49211 5.40205 8.11923ZM9.58705 10.732H11.632V0.236745H9.58705V10.732ZM16.6386 4.26263C15.4096 3.80722 15.0478 3.50687 15.0478 2.94234C15.0478 2.28088 15.6918 1.77772 16.5746 1.77772C17.1883 1.77772 17.6919 2.0293 18.2285 2.62553L19.2972 1.22721C18.4161 0.454388 17.3618 0.061574 16.2118 0.061574C14.3567 0.061574 12.9393 1.3526 12.9393 3.0663C12.9393 4.51543 13.5997 5.25431 15.5203 5.94849C16.3234 6.23035 16.7317 6.41833 16.9367 6.54676C17.3458 6.81439 17.5512 7.19074 17.5512 7.63111C17.5512 8.48217 16.8739 9.11072 15.9599 9.11072C14.984 9.11072 14.198 8.62341 13.7255 7.71077L12.4052 8.98696C13.3475 10.3698 14.4809 10.9856 16.0405 10.9856C18.1649 10.9856 19.6592 9.56734 19.6592 7.53783C19.6592 5.86944 18.9684 5.11349 16.6386 4.26263ZM20.3042 5.48943C20.3042 8.57728 22.7285 10.9687 25.8454 10.9687C26.7266 10.9687 27.4819 10.7945 28.4114 10.3556V7.9465C27.5919 8.76566 26.8678 9.09527 25.9389 9.09527C23.8777 9.09527 22.4131 7.59981 22.4131 5.47439C22.4131 3.46095 23.9234 1.8712 25.8454 1.8712C26.8196 1.8712 27.5606 2.21727 28.4114 3.05127V0.642361C27.5144 0.187364 26.7735 0 25.8922 0C22.7911 0 20.3042 2.43979 20.3042 5.48943ZM44.9982 7.28666L42.1967 0.236745H39.9617L44.4172 11H45.518L50.0513 0.236745H47.8328L44.9982 7.28666ZM50.9818 10.732H56.7885V8.95526H53.0276V6.12041H56.6446V4.3433H53.0276V2.01386H56.7885V0.236745H50.9818V10.732ZM64.8917 3.33414C64.8917 1.36804 63.5401 0.236745 61.1779 0.236745H58.1401V10.732H60.1881V6.51384H60.4561L63.2875 10.732H65.8057L62.4986 6.31103C64.0432 5.99523 64.8917 4.94035 64.8917 3.33414ZM60.7837 5.06736H60.1881V1.88705H60.8164C62.094 1.88705 62.7862 2.42374 62.7862 3.44509C62.7862 4.49876 62.094 5.06736 60.7837 5.06736Z" fill="#0B1015"/>
<defs>
<linearGradient id="paint0_linear_30601_150307" x1="246.22" y1="99.0884" x2="1019.66" y2="879.785" gradientUnits="userSpaceOnUse">
<stop stop-color="#F34F26"/>
<stop offset="1" stop-color="#F69E35"/>
</linearGradient>
</defs>
</svg>
