<svg width="512" height="512" viewBox="0 0 512 512" fill="none" xmlns="http://www.w3.org/2000/svg">
<path d="M511.89 0H0.110352V511.78H511.89V0Z" fill="white"/>
<path d="M511.89 277.2V0.23H0.110352V512H511.89V362.69C510.74 362.69 511.89 277.2 511.89 277.2Z" fill="#006FCF"/>
<path d="M449.2 248.71H487.95V158.66H445.79V171.2L437.81 158.66H401.33V174.62L394.5 158.66H327.25C324.97 158.66 322.69 159.81 320.42 159.81C318.14 159.81 316.99 160.95 314.72 162.08C312.44 163.23 311.29 163.23 309.02 164.36V158.66H116.37L110.67 173.48L104.97 158.66H59.3804V174.62L52.5504 158.66H16.0704L0.110352 197.42V248.71H26.3204L30.8804 236.17H40.0004L44.5604 248.71H245.16V237.31L253.14 248.71H308.99V241.86C310.13 243.01 312.41 243.01 313.54 244.14C314.69 245.29 316.96 245.29 318.1 246.42C320.38 247.56 322.65 247.56 324.93 247.56H366L370.55 235.03H379.67L384.23 247.56H440.08V236.16L449.2 248.71ZM511.89 362.69V278.34H198.44L190.46 289.74L182.48 278.34H91.3004V368.39H182.48L190.46 356.99L198.44 368.39H255.43V349.01H253.15C261.13 349.01 267.97 347.87 273.66 345.59V369.52H314.7V358.12L322.67 369.52H492.51C499.34 367.24 506.19 366.11 511.89 362.69Z" fill="white"/>
<path d="M492.51 341.03H461.73V353.57H491.37C503.9 353.57 511.88 345.59 511.88 334.19C511.88 322.79 505.03 317.09 493.64 317.09H479.97C476.54 317.09 474.27 314.81 474.27 311.39C474.27 307.97 476.54 305.69 479.97 305.69H506.18L511.88 293.15H481.1C468.57 293.15 460.59 301.13 460.59 311.39C460.59 322.79 467.42 328.49 478.82 328.49H492.5C495.92 328.49 498.2 330.77 498.2 334.19C499.34 338.75 497.07 341.03 492.51 341.03ZM436.65 341.03H405.88V353.57H435.51C448.04 353.57 456.02 345.59 456.02 334.19C456.02 322.79 449.19 317.09 437.79 317.09H424.11C420.69 317.09 418.41 314.81 418.41 311.39C418.41 307.97 420.69 305.69 424.11 305.69H450.32L456.02 293.15H425.24C412.71 293.15 404.73 301.13 404.73 311.39C404.73 322.79 411.58 328.49 422.97 328.49H436.64C440.07 328.49 442.34 330.77 442.34 334.19C443.5 338.75 440.08 341.03 436.65 341.03ZM396.76 304.55V292.02H348.9V352.43H396.76V339.9H362.57V327.36H395.63V314.83H362.57V303.43H396.76V304.55ZM319.26 304.55C324.96 304.55 327.24 307.98 327.24 311.4C327.24 314.82 324.96 318.23 319.26 318.23H302.16V303.41L319.26 304.55ZM302.16 330.78H309.01L327.24 352.43H344.34L323.83 329.63C334.08 327.35 339.78 320.51 339.78 311.4C339.78 300 331.81 292.02 319.27 292.02H287.36V352.43H301.04L302.16 330.78ZM265.68 312.53C265.68 317.09 263.41 320.51 257.71 320.51H239.47V304.55H256.57C262.27 304.55 265.68 307.98 265.68 312.53ZM225.79 292.02V352.43H239.47V331.92H257.71C270.24 331.92 279.36 323.94 279.36 311.41C279.36 300.01 271.38 290.9 258.85 290.9L225.79 292.02ZM205.28 352.43H222.38L198.45 321.65L222.38 292.02H205.28L190.46 311.4L175.64 292.02H158.54L182.47 321.65L158.54 351.29H175.64L190.46 331.91L205.28 352.43ZM153.99 304.55V292.02H106.12V352.43H153.99V339.9H119.8V327.36H152.86V314.83H119.8V303.43H153.99V304.55ZM430.96 197.42L454.9 233.9H472V173.48H458.32V213.37L454.9 207.67L433.24 173.48H415.01V233.9H428.69V192.86L430.96 197.42ZM371.69 196.27L376.24 183.74L380.8 196.27L386.5 209.95H366L371.69 196.27ZM395.63 233.89H410.45L384.24 173.47H366L339.78 233.89H354.61L360.31 221.35H389.94L395.63 233.89ZM331.8 233.89L337.5 221.35H334.07C323.82 221.35 318.12 214.52 318.12 204.25V203.11C318.12 192.85 323.82 186.01 334.07 186.01H348.9V173.47H332.94C314.71 173.47 304.44 186.01 304.44 203.11V204.25C304.44 222.5 314.7 233.89 331.8 233.89ZM280.51 233.89H294.18V174.62H280.51V233.89ZM250.87 186.02C256.57 186.02 258.85 189.44 258.85 192.85C258.85 196.26 256.57 199.7 250.87 199.7H233.77V184.87L250.87 186.02ZM233.77 212.23H240.62L258.85 233.89H275.95L255.44 211.09C265.69 208.81 271.39 201.96 271.39 192.85C271.39 181.45 263.42 173.47 250.88 173.47H218.97V233.89H232.65L233.77 212.23ZM208.69 186.02V173.48H160.83V233.9H208.69V221.36H174.5V208.83H207.56V196.29H174.5V184.89H208.69V186.02ZM104.98 233.89H117.51L134.61 184.87V233.89H148.29V173.47H125.49L111.81 214.51L98.1404 173.47H75.3403V233.89H89.0104V184.87L104.98 233.89ZM30.8904 196.27L35.4504 183.74L40.0004 196.27L45.7004 209.95H25.1904L30.8904 196.27ZM54.8204 233.89H69.6504L43.4304 173.47H26.3304L0.110352 233.89H14.9304L20.6304 221.35H50.2704L54.8204 233.89Z" fill="#006FCF"/>
</svg>
