<svg width="78" height="49" viewBox="0 0 78 49" fill="none" xmlns="http://www.w3.org/2000/svg">
<path d="M63.5256 34.075V33.475H63.3756L63.2006 33.875L63.0256 33.475H62.8756V34.075H62.9756V33.625L63.1506 34.025H63.2756L63.4506 33.625V34.075H63.5256ZM62.5256 34.075V33.575H62.7256V33.475H62.2256V33.575H62.4256V34.075H62.5256Z" fill="#00A2E5"/>
<path d="M45.7506 36.65H32.2256V12.35H45.7506V36.65Z" fill="#7375CF"/>
<path d="M33.1 24.5C33.1 19.575 35.4 15.175 39 12.35C36.375 10.275 33.05 9.05 29.45 9.05C20.925 9.05 14 15.975 14 24.5C14 33.025 20.925 39.95 29.45 39.95C33.05 39.95 36.375 38.725 39 36.65C35.4 33.825 33.1 29.425 33.1 24.5Z" fill="#EB001B"/>
<path d="M64 24.5C64 33.025 57.075 39.95 48.55 39.95C44.95 39.95 41.625 38.725 39 36.65C42.6 33.825 44.9 29.425 44.9 24.5C44.9 19.575 42.6 15.175 39 12.35C41.625 10.275 44.95 9.05 48.55 9.05C57.075 9.05 64 15.975 64 24.5Z" fill="#00A2E5"/>
</svg>
