<svg width="78" height="49" viewBox="0 0 78 49" fill="none" xmlns="http://www.w3.org/2000/svg">
<path d="M45.3554 12.509H31.9014V36.6545H45.3554V12.509Z" fill="#FF5F00"/>
<path d="M32.7571 24.5818C32.7571 19.8892 34.9353 15.4099 38.6085 12.5091C31.9455 7.26192 22.2928 8.41373 17.0394 15.1113C11.7859 21.7663 12.9391 31.4074 19.6448 36.6545C25.2399 41.0485 33.056 41.0485 38.6512 36.6545C34.9353 33.7537 32.7571 29.2744 32.7571 24.5818Z" fill="#EB001B"/>
<path d="M64.2534 24.4111C64.2534 32.9004 57.3769 39.7686 48.8774 39.7686C45.4178 39.7686 42.0863 38.6168 39.3955 36.4838C46.0584 31.2367 47.2116 21.5955 41.9582 14.898C41.1894 13.9594 40.3352 13.0636 39.3955 12.3384C46.0584 7.0912 55.7539 8.24302 60.9646 14.9406C63.1002 17.6282 64.2534 20.9556 64.2534 24.4111Z" fill="#F79E1B"/>
<path d="M62.0568 34.095V33.5831H62.2703V33.4977H61.7578V33.5831H61.9714V34.095H62.0568ZM63.0391 34.095V33.4977H62.8683L62.6975 33.9243L62.5266 33.4977H62.3558V34.095H62.4839V33.6257L62.6547 34.0097H62.7829L62.9537 33.6257V34.095H63.0391Z" fill="#F79E1B"/>
</svg>
