<svg width="22" height="13" viewBox="0 0 22 13" fill="none" xmlns="http://www.w3.org/2000/svg">
<path d="M14.0403 1.39111H8.34863V11.6058H14.0403V1.39111Z" fill="#FF5F00"/>
<path d="M8.71013 6.4985C8.71013 4.5133 9.63164 2.61835 11.1856 1.39114C8.36682 -0.828669 4.28325 -0.341395 2.06078 2.49202C-0.161696 5.30738 0.326164 9.38605 3.16298 11.6059C5.53 13.4647 8.83661 13.4647 11.2036 11.6059C9.63164 10.3786 8.71013 8.48369 8.71013 6.4985Z" fill="#EB001B"/>
<path d="M21.7202 6.4985C21.7202 10.0899 18.8111 12.9955 15.2154 12.9955C13.7518 12.9955 12.3424 12.5082 11.2041 11.6059C14.0228 9.38605 14.5107 5.30738 12.2882 2.47397C11.963 2.07693 11.6016 1.69794 11.2041 1.39114C14.0228 -0.828669 18.1245 -0.341395 20.3289 2.49202C21.2323 3.62899 21.7202 5.03667 21.7202 6.4985Z" fill="#F79E1B"/>
<path d="M21.106 10.523V10.3064H21.1963V10.2704H20.9795V10.3064H21.0698V10.523H21.106ZM21.5216 10.523V10.2704H21.4493L21.377 10.4508L21.3047 10.2704H21.2325V10.523H21.2867V10.3245L21.3589 10.4869H21.4131L21.4854 10.3245V10.523H21.5216Z" fill="#F79E1B"/>
</svg>
