<svg width="511" height="86" viewBox="0 0 511 86" fill="none" xmlns="http://www.w3.org/2000/svg">
<path d="M23.353 1.83739H0V83.2912H23.2315C35.557 83.2912 44.4711 80.3704 52.2906 73.893C61.5691 66.198 67.0718 54.5949 67.0718 42.6037C67.0718 18.5553 49.1064 1.83739 23.353 1.83739ZM41.9256 63.0137C36.9039 67.5449 30.4391 69.5022 20.1655 69.5022H15.8977V15.6296H20.1655C30.4391 15.6296 36.6563 17.4639 41.9256 22.2221C47.4204 27.1082 50.6977 34.6738 50.6977 42.487C50.6977 50.316 47.4204 58.1466 41.9256 63.0137ZM74.4055 83.2912H90.2765V1.83739H74.4055V83.2912ZM129.133 33.0824C119.594 29.548 116.787 27.217 116.787 22.8357C116.787 17.702 121.785 13.797 128.636 13.797C133.399 13.797 137.307 15.7495 141.473 20.3769L149.767 9.52445C142.928 3.52652 134.746 0.477879 125.821 0.477879C111.423 0.477879 100.422 10.4976 100.422 23.7977C100.422 35.0444 105.548 40.779 120.454 46.1665C126.687 48.3541 129.855 49.8129 131.447 50.8097C134.621 52.8868 136.216 55.8077 136.216 59.2254C136.216 65.8305 130.959 70.7087 123.865 70.7087C116.292 70.7087 110.191 66.9267 106.524 59.8436L96.2775 69.7482C103.591 80.4807 112.387 85.2595 124.491 85.2595C140.979 85.2595 152.576 74.2525 152.576 58.5015C152.576 45.553 147.215 39.686 129.133 33.0824ZM157.582 42.6037C157.582 66.5686 176.397 85.1286 200.588 85.1286C207.426 85.1286 213.288 83.777 220.502 80.3703V61.6731C214.142 68.0307 208.522 70.5888 201.313 70.5888C185.316 70.5888 173.949 58.9825 173.949 42.487C173.949 26.8606 185.671 14.5225 200.588 14.5225C208.148 14.5225 213.899 17.2084 220.502 23.681V4.98539C213.541 1.45414 207.79 0 200.95 0C176.883 0 157.582 18.9353 157.582 42.6037ZM349.233 56.5521L327.49 1.83739H310.145L344.724 85.3715H353.267L388.451 1.83739H371.233L349.233 56.5521ZM395.672 83.2912H440.738V69.5022H411.55V47.5008H439.621V33.7086H411.55V15.6296H440.738V1.83739H395.672V83.2912ZM503.627 25.8764C503.627 10.6174 493.138 1.83739 474.805 1.83739H451.228V83.2912H467.122V50.5542H469.203L491.177 83.2912H510.721L485.055 48.9802C497.043 46.5293 503.627 38.3423 503.627 25.8764ZM471.745 39.328H467.122V14.6455H471.999C481.915 14.6455 487.286 18.8108 487.286 26.7375C487.286 34.9151 481.915 39.328 471.745 39.328Z" fill="#0B1015"/>
</svg>
