<svg width="78" height="40" viewBox="0 0 78 40" fill="none" xmlns="http://www.w3.org/2000/svg">
<path d="M46.9351 11.1111C43.0362 11.1111 39.5355 13.1398 39.5355 16.8627C39.5355 21.1503 45.7193 21.4431 45.7193 23.5764C45.7193 24.4758 44.6712 25.2915 42.9104 25.2915C40.395 25.2915 38.5084 24.1621 38.5084 24.1621L37.7119 27.9268C37.7119 27.9268 39.8709 28.8889 42.7637 28.8889C47.0399 28.8889 50.3938 26.7764 50.3938 22.9699C50.3938 18.4523 44.1891 18.1594 44.1891 16.1725C44.1891 15.4614 45.0485 14.6876 46.8093 14.6876C48.8007 14.6876 50.4357 15.5032 50.4357 15.5032L51.2322 11.864C51.2113 11.864 49.4295 11.1111 46.9351 11.1111ZM11.2161 11.383L11.1113 11.9268C11.1113 11.9268 12.7463 12.2196 14.2346 12.8261C16.1422 13.5163 16.2679 13.9137 16.6033 15.1477L20.1039 28.596H24.7994L31.9893 11.383H27.3148L22.6822 23.0954L20.7957 13.1608C20.628 12.0313 19.7476 11.383 18.6576 11.383H11.2161ZM33.8759 11.383L30.2075 28.596H34.6724L38.3198 11.383H33.8759ZM58.7366 11.383C57.6675 11.383 57.1015 11.9477 56.6823 12.9516L50.1422 28.596H54.8167L55.7181 25.9817H61.4197L61.9647 28.596H66.0941L62.5097 11.383H58.7366ZM59.3444 16.047L60.7279 22.5098H57.0177L59.3444 16.047Z" fill="#1434CB"/>
</svg>
